<svg width="1024" height="1024" viewBox="0 0 1024 1024" fill="none" xmlns="http://www.w3.org/2000/svg">
<ellipse cx="573.624" cy="555.941" rx="415.714" ry="415.715" fill="#E3FED3"/>
<path d="M157.678 537C181.037 490.411 170.241 399.455 157.678 367.593C145.115 335.638 100.446 332.304 104.913 365.648C109.752 400.937 176.38 395.38 197.72 367.593C204.688 358.52 261.74 296.44 246.22 216.899" stroke="#1A1A1A" stroke-width="1.06593" stroke-miterlimit="16" stroke-linecap="square" stroke-linejoin="bevel" stroke-dasharray="3.2 3.2"/>
<path d="M51.8014 428.159C38.3673 428.733 27 434.474 27 434.474C39.2859 395.665 36.4153 319.309 36.4153 319.309C36.4153 319.309 56.8536 313.108 77.6362 315.634C98.5337 318.045 120.12 311.96 120.12 311.96C120.12 311.96 118.168 393.598 90.7258 429.537C90.7258 429.537 65.3503 427.47 51.8014 428.159Z" fill="#5BBC21"/>
<path d="M105.426 331.479C105.35 332.245 105.311 333.125 105.311 334.12C96.3552 335.958 80.1654 337.221 68.6833 335.958C58.1197 334.924 48.8192 337.909 44.2263 339.861C44.2263 338.943 44.2263 338.024 44.2263 337.106C49.2785 335.039 58.4642 332.283 68.9129 333.431C80.395 334.58 96.9293 333.317 105.426 331.479Z" fill="white"/>
<path d="M104.502 345.145C104.502 345.987 104.464 346.867 104.387 347.785C95.4309 349.737 80.9634 350.656 67.1849 348.589C57.9992 347.326 48.469 350.886 43.991 352.952C44.0675 351.957 44.1058 351 44.1058 350.082C49.1579 347.785 58.4584 344.685 67.6442 346.063C81.4227 348.13 95.8902 347.096 104.502 345.145Z" fill="white"/>
<path d="M103.244 358.35C103.244 359.269 103.129 360.073 103.014 360.991C95.8955 362.254 88.8913 361.91 81.428 361.336C76.7203 361.106 71.783 360.762 66.7308 360.876C56.971 361.106 47.0964 364.78 43.0776 366.388C43.1542 365.469 43.2307 364.512 43.3073 363.517C48.015 361.565 57.2007 358.465 66.616 358.235C71.8978 358.121 76.8351 358.465 81.6576 358.81C89.121 359.269 96.3547 359.728 103.244 358.35Z" fill="white"/>
<path d="M101.405 371.896C101.251 372.738 101.098 373.58 100.945 374.422C98.1896 374.422 94.9746 374.307 91.4152 374.192C84.0666 373.848 74.9957 373.503 65.2359 373.733C56.165 373.848 46.52 377.178 41.6975 379.015C41.8506 378.02 41.9654 377.025 42.042 376.029C47.3238 374.077 56.3946 371.207 65.2359 371.092C74.9957 370.977 84.1814 371.322 91.53 371.551C95.2043 371.781 98.5341 371.896 101.405 371.896Z" fill="white"/>
<path d="M98.7663 384.413C98.5366 385.255 98.307 386.097 98.0773 386.939C91.3029 386.595 77.1798 386.021 66.8459 386.25C57.2009 386.365 45.1447 390.384 39.8629 392.221C39.9395 391.379 40.0543 390.422 40.2074 389.35C46.1781 387.284 57.3158 383.724 66.8459 383.609C77.5243 383.38 92.2214 384.069 98.7663 384.413Z" fill="white"/>
<path d="M997 222.719L874.966 243.557L871.493 292.475L892.422 259.642L997 222.719Z" fill="#5BBC21"/>
<path d="M871.562 292.589L871.493 292.635L871.469 292.751L871.562 292.589Z" fill="#A0F171"/>
<path d="M997 222.719L830.16 223.564L874.966 243.557L997 222.719Z" fill="#A0F171"/>
<path d="M892.422 259.643L871.492 292.476L871.355 292.682L871.492 292.636L871.561 292.59L908.416 278.607L892.422 259.643Z" fill="#7FDF46"/>
<path d="M997 222.719L892.422 259.642L941.729 318.112L997 222.719Z" fill="#A0F171"/>
<path d="M901.09 833.75L738.086 833.905C732.35 833.838 727.871 829.329 727.799 823.699L727.394 520.282C727.321 514.651 731.97 510.067 737.601 509.994L900.605 509.839C906.341 509.906 910.819 514.415 910.892 520.045L911.297 823.462C911.369 829.093 906.721 833.677 901.09 833.75Z" fill="#03235D"/>
<path d="M905.252 802.437L734.24 803L733.404 527.317L904.522 526.894L905.252 802.437Z" fill="white"/>
<path d="M828.281 817.966C828.256 822.582 824.593 826.437 819.837 826.518C815.221 826.494 811.4 822.585 811.424 817.969C811.344 813.213 815.112 809.497 819.729 809.522C824.485 809.441 828.2 813.21 828.281 817.966Z" fill="#525E8F"/>
<path d="M641.789 831.622H89.0796V509.839H641.789V831.622Z" fill="#03235D"/>
<path d="M632.451 822.283H98.1653V519.176H632.451V822.283Z" fill="white"/>
<path d="M462.599 887.145V893.96H379.566H351.048H268.015V887.145L351.048 868.974V831.622H379.566V868.974L462.599 887.145Z" fill="#03235D"/>
<path d="M460.171 690.874C460.206 706.017 448.018 718.361 432.674 718.547L293.513 718.812C278.37 718.847 266.026 706.66 265.84 691.315C265.806 676.173 277.993 663.829 292.984 663.593C292.897 647.542 305.89 634.59 321.941 634.503C323.018 634.535 324.028 634.617 324.97 634.749C334.777 618.827 352.117 608.288 372.155 608.041C402.794 608.022 427.432 632.75 427.653 663.237L432.347 663.175C447.843 663.191 460.187 675.378 460.171 690.874Z" fill="#5BBC21"/>
<path d="M363.27 718.703L333.509 682.983L392.464 682.799L363.27 718.703Z" fill="white"/>
<path d="M374.157 689.958L351.796 690.059L351.832 661.59L374.193 661.489L374.157 689.958Z" fill="white"/>
<path d="M819.4 707.651C819.4 707.696 819.377 707.719 819.332 707.719C772.661 697.032 780.169 639.2 780.169 639.2L819.332 622.358H819.4L858.427 639.2C858.427 639.2 866.003 696.964 819.4 707.651Z" fill="#5BBC21"/>
<path d="M850.714 668.352C846.115 686.412 835.563 697.64 819.33 701.766C803.096 697.64 792.545 686.412 787.945 668.352C785.307 658.004 785.375 648.061 785.645 643.191L819.33 628.648L853.014 643.191C853.284 648.061 853.352 658.004 850.714 668.352Z" fill="#5BBC21"/>
<path d="M813.65 676.673L804.046 667.136L808.442 662.74L813.65 667.948L833.671 647.927L838.068 652.256L813.65 676.673Z" fill="white"/>
<path d="M393.784 110.102C396.386 110.102 398.938 110.202 401.441 110.402C419.757 75.7211 456.239 52 498.277 52C550.823 52 594.812 89.2331 605.171 138.927C613.429 136.225 622.136 134.723 631.295 134.723C677.085 134.723 714.168 171.806 714.168 217.447C714.168 263.238 677.085 300.321 631.295 300.321H393.784C341.237 300.321 298.599 257.683 298.599 205.286C298.599 152.739 341.237 110.102 393.784 110.102Z" fill="#5BBC21"/>
<path d="M409.395 189.97L426.811 159.644C428.913 156.19 434.167 156.19 436.119 159.644L453.685 189.97C455.636 193.424 453.084 197.928 449.031 197.928H441.073C444.527 224.501 465.545 245.67 492.119 249.273C496.623 249.874 500.076 253.627 500.076 258.131C500.076 263.536 495.272 267.589 489.867 266.989C454.435 262.185 426.511 233.659 423.058 197.928H414.05C409.996 197.928 407.444 193.424 409.395 189.97Z" fill="#FAFAFA"/>
<path d="M500.075 122.261C500.075 116.706 504.879 112.652 510.284 113.403C545.715 118.057 573.49 146.583 577.093 182.314H586.101C590.155 182.314 592.707 186.818 590.755 190.421L573.19 220.598C571.238 224.201 565.983 224.201 563.882 220.598L546.466 190.421C544.514 186.818 547.067 182.314 551.12 182.314H559.077C555.624 155.741 534.606 134.572 508.032 131.119C503.528 130.518 500.075 126.765 500.075 122.261Z" fill="#FAFAFA"/>
<path d="M243.841 214.959C216.06 186.235 197.72 197.293 197.72 197.293C199.203 190.281 201.361 183.538 203.653 177.065C222.264 154.679 243.841 139.844 264.474 130.135C240.739 169.243 243.706 213.881 243.841 214.959Z" fill="#5BBC21"/>
<path d="M346.198 111.256C346.198 111.256 307.359 109.773 264.475 130.136C243.842 139.845 222.265 154.68 203.655 177.066C209.858 160.209 218.354 145.105 227.389 131.889C228.019 130.99 228.648 130.091 229.277 129.192C232.514 124.697 235.75 120.471 238.987 116.515C239.706 115.616 240.425 114.717 241.145 113.818C244.786 109.503 248.427 105.457 251.798 101.951C252.607 101.052 253.416 100.153 254.226 99.2537C257.597 95.8823 260.564 92.9155 263.261 90.2184C264.34 89.3193 265.329 88.4652 266.228 87.6561C272.296 82.127 276.207 79.1602 276.207 79.1602C309.247 79.295 346.198 111.256 346.198 111.256Z" fill="#5BBC21"/>
<path d="M305.203 103.568C303.989 103.703 302.641 103.838 301.292 104.108C289.829 94.9375 270.275 91.2964 263.263 90.2175C264.341 89.3185 265.33 88.4644 266.229 87.6553C275.265 89.1387 294.414 93.4541 305.203 103.568Z" fill="white"/>
<path d="M277.692 110.447C276.703 110.807 275.624 111.211 274.455 111.661C267.443 105.188 257.059 102.76 251.8 101.951C252.609 101.052 253.418 100.153 254.227 99.2539C260.7 100.468 270.814 103.3 277.692 110.447Z" fill="white"/>
<path d="M255.441 120.022C254.452 120.471 253.463 121.011 252.474 121.64C248.024 118.808 242.63 117.325 238.989 116.515C239.708 115.616 240.427 114.717 241.146 113.818C245.327 114.897 250.991 116.65 255.441 120.022Z" fill="white"/>
<path d="M235.747 131.619C234.848 132.248 233.904 132.922 232.915 133.642C231.162 132.833 229.004 132.293 227.386 131.889C228.015 130.989 228.645 130.09 229.274 129.191C231.297 129.731 233.859 130.54 235.747 131.619Z" fill="white"/>
<path d="M376.2 515.662V414.782H438.28V300.321M556.62 300.321V414.782H814.64V507.902" stroke="#1A1A1A" stroke-width="3.1978" stroke-dasharray="10.66 10.66"/>
</svg>
