<svg xmlns="http://www.w3.org/2000/svg" width="50" height="50" fill="none"><path fill="#000" fill-rule="evenodd" d="M9 0h32a9 9 0 0 1 9 9v32a9 9 0 0 1-9 9H9a9 9 0 0 1-9-9V9a9 9 0 0 1 9-9Zm0 2a7 7 0 0 0-7 7v32a7 7 0 0 0 7 7h32a7 7 0 0 0 7-7V9a7 7 0 0 0-7-7H9Z" clip-rule="evenodd"/><path fill="#4ABE04" d="M17.563 35.417c-1.82 0-3.368-.633-4.647-1.898C11.638 32.255 11 30.708 11 28.88c0-1.728.595-3.225 1.784-4.492 1.189-1.268 2.585-1.949 4.19-2.044.327-2.125 1.304-3.88 2.93-5.265 1.627-1.385 3.52-2.078 5.68-2.078 2.437 0 4.505.849 6.203 2.546 1.699 1.698 2.547 3.766 2.546 6.204v1.458h.897c1.397.045 2.57.558 3.516 1.539.947.98 1.42 2.168 1.42 3.566 0 1.43-.483 2.638-1.45 3.625-.968.986-2.167 1.479-3.598 1.479h-7.909c-.67 0-1.23-.225-1.68-.674-.45-.45-.675-1.01-.675-1.681v-8.466l-3.062 3.045-1.033-1.003 4.824-4.823 4.825 4.824-1.033 1.003-3.063-3.045v8.465c0 .223.094.429.28.616.188.187.394.28.617.28h7.854c1.02 0 1.883-.352 2.588-1.057.705-.705 1.057-1.568 1.057-2.589 0-1.02-.352-1.883-1.057-2.588-.705-.705-1.568-1.057-2.589-1.057h-2.187V23.75c0-2.017-.711-3.737-2.134-5.16-1.422-1.422-3.141-2.133-5.158-2.132-2.017 0-3.736.712-5.158 2.134-1.421 1.422-2.132 3.142-2.133 5.158h-.785c-1.354 0-2.534.498-3.54 1.495-1.006.996-1.509 2.2-1.509 3.61 0 1.409.499 2.612 1.495 3.609.997.996 2.2 1.494 3.61 1.494h3.645v1.459h-3.645Z"/></svg>