<svg width="512" height="144" viewBox="0 0 512 144" fill="none" xmlns="http://www.w3.org/2000/svg">
<path d="M325.64 65.32C323.453 65.32 321.48 64.8533 319.72 63.92C317.987 62.9867 316.613 61.6533 315.6 59.92C314.613 58.1867 314.12 56.16 314.12 53.84C314.12 51.5467 314.627 49.5333 315.64 47.8C316.653 46.04 318.04 44.6933 319.8 43.76C321.56 42.8267 323.533 42.36 325.72 42.36C327.907 42.36 329.88 42.8267 331.64 43.76C333.4 44.6933 334.787 46.04 335.8 47.8C336.813 49.5333 337.32 51.5467 337.32 53.84C337.32 56.1333 336.8 58.16 335.76 59.92C334.747 61.6533 333.347 62.9867 331.56 63.92C329.8 64.8533 327.827 65.32 325.64 65.32ZM325.64 59.4C326.947 59.4 328.053 58.92 328.96 57.96C329.893 57 330.36 55.6267 330.36 53.84C330.36 52.0533 329.907 50.68 329 49.72C328.12 48.76 327.027 48.28 325.72 48.28C324.387 48.28 323.28 48.76 322.4 49.72C321.52 50.6533 321.08 52.0267 321.08 53.84C321.08 55.6267 321.507 57 322.36 57.96C323.24 58.92 324.333 59.4 325.64 59.4ZM354.549 42.44C357.162 42.44 359.242 43.2933 360.789 45C362.362 46.68 363.149 49 363.149 51.96V65H356.349V52.88C356.349 51.3867 355.962 50.2267 355.189 49.4C354.415 48.5733 353.375 48.16 352.069 48.16C350.762 48.16 349.722 48.5733 348.949 49.4C348.175 50.2267 347.789 51.3867 347.789 52.88V65H340.949V42.68H347.789V45.64C348.482 44.6533 349.415 43.88 350.589 43.32C351.762 42.7333 353.082 42.44 354.549 42.44ZM408.178 36.92V65H401.338V48.16L395.058 65H389.538L383.218 48.12V65H376.378V36.92H384.458L392.338 56.36L400.138 36.92H408.178ZM423.257 65.32C421.071 65.32 419.097 64.8533 417.337 63.92C415.604 62.9867 414.231 61.6533 413.217 59.92C412.231 58.1867 411.737 56.16 411.737 53.84C411.737 51.5467 412.244 49.5333 413.257 47.8C414.271 46.04 415.657 44.6933 417.417 43.76C419.177 42.8267 421.151 42.36 423.337 42.36C425.524 42.36 427.497 42.8267 429.257 43.76C431.017 44.6933 432.404 46.04 433.417 47.8C434.431 49.5333 434.937 51.5467 434.937 53.84C434.937 56.1333 434.417 58.16 433.377 59.92C432.364 61.6533 430.964 62.9867 429.177 63.92C427.417 64.8533 425.444 65.32 423.257 65.32ZM423.257 59.4C424.564 59.4 425.671 58.92 426.577 57.96C427.511 57 427.977 55.6267 427.977 53.84C427.977 52.0533 427.524 50.68 426.617 49.72C425.737 48.76 424.644 48.28 423.337 48.28C422.004 48.28 420.897 48.76 420.017 49.72C419.137 50.6533 418.697 52.0267 418.697 53.84C418.697 55.6267 419.124 57 419.977 57.96C420.857 58.92 421.951 59.4 423.257 59.4ZM445.406 45.84C446.046 44.8 446.966 43.96 448.166 43.32C449.366 42.68 450.739 42.36 452.286 42.36C454.126 42.36 455.793 42.8267 457.286 43.76C458.779 44.6933 459.953 46.0267 460.806 47.76C461.686 49.4933 462.126 51.5067 462.126 53.8C462.126 56.0933 461.686 58.12 460.806 59.88C459.953 61.6133 458.779 62.96 457.286 63.92C455.793 64.8533 454.126 65.32 452.286 65.32C450.713 65.32 449.339 65.0133 448.166 64.4C446.993 63.76 446.073 62.92 445.406 61.88V65H438.566V35.4H445.406V45.84ZM455.166 53.8C455.166 52.0933 454.686 50.76 453.726 49.8C452.793 48.8133 451.633 48.32 450.246 48.32C448.886 48.32 447.726 48.8133 446.766 49.8C445.833 50.7867 445.366 52.1333 445.366 53.84C445.366 55.5467 445.833 56.8933 446.766 57.88C447.726 58.8667 448.886 59.36 450.246 59.36C451.606 59.36 452.766 58.8667 453.726 57.88C454.686 56.8667 455.166 55.5067 455.166 53.8ZM469.154 40.36C467.954 40.36 466.968 40.0133 466.194 39.32C465.448 38.6 465.074 37.72 465.074 36.68C465.074 35.6133 465.448 34.7333 466.194 34.04C466.968 33.32 467.954 32.96 469.154 32.96C470.328 32.96 471.288 33.32 472.034 34.04C472.808 34.7333 473.194 35.6133 473.194 36.68C473.194 37.72 472.808 38.6 472.034 39.32C471.288 40.0133 470.328 40.36 469.154 40.36ZM472.554 42.68V65H465.714V42.68H472.554ZM484.351 35.4V65H477.511V35.4H484.351ZM510.348 53.48C510.348 54.12 510.308 54.7867 510.228 55.48H494.748C494.855 56.8667 495.295 57.9333 496.068 58.68C496.868 59.4 497.841 59.76 498.988 59.76C500.695 59.76 501.881 59.04 502.548 57.6H509.828C509.455 59.0667 508.775 60.3867 507.788 61.56C506.828 62.7333 505.615 63.6533 504.148 64.32C502.681 64.9867 501.041 65.32 499.228 65.32C497.041 65.32 495.095 64.8533 493.388 63.92C491.681 62.9867 490.348 61.6533 489.388 59.92C488.428 58.1867 487.948 56.16 487.948 53.84C487.948 51.52 488.415 49.4933 489.348 47.76C490.308 46.0267 491.641 44.6933 493.348 43.76C495.055 42.8267 497.015 42.36 499.228 42.36C501.388 42.36 503.308 42.8133 504.988 43.72C506.668 44.6267 507.975 45.92 508.908 47.6C509.868 49.28 510.348 51.24 510.348 53.48ZM503.348 51.68C503.348 50.5067 502.948 49.5733 502.148 48.88C501.348 48.1867 500.348 47.84 499.148 47.84C498.001 47.84 497.028 48.1733 496.228 48.84C495.455 49.5067 494.975 50.4533 494.788 51.68H503.348Z" fill="#5BBC21"/>
<path d="M325.64 107.32C323.453 107.32 321.48 106.853 319.72 105.92C317.987 104.987 316.613 103.653 315.6 101.92C314.613 100.187 314.12 98.16 314.12 95.84C314.12 93.5467 314.627 91.5333 315.64 89.8C316.653 88.04 318.04 86.6933 319.8 85.76C321.56 84.8267 323.533 84.36 325.72 84.36C327.907 84.36 329.88 84.8267 331.64 85.76C333.4 86.6933 334.787 88.04 335.8 89.8C336.813 91.5333 337.32 93.5467 337.32 95.84C337.32 98.1333 336.8 100.16 335.76 101.92C334.747 103.653 333.347 104.987 331.56 105.92C329.8 106.853 327.827 107.32 325.64 107.32ZM325.64 101.4C326.947 101.4 328.053 100.92 328.96 99.96C329.893 99 330.36 97.6267 330.36 95.84C330.36 94.0533 329.907 92.68 329 91.72C328.12 90.76 327.027 90.28 325.72 90.28C324.387 90.28 323.28 90.76 322.4 91.72C321.52 92.6533 321.08 94.0267 321.08 95.84C321.08 97.6267 321.507 99 322.36 99.96C323.24 100.92 324.333 101.4 325.64 101.4ZM354.549 84.44C357.162 84.44 359.242 85.2933 360.789 87C362.362 88.68 363.149 91 363.149 93.96V107H356.349V94.88C356.349 93.3867 355.962 92.2267 355.189 91.4C354.415 90.5733 353.375 90.16 352.069 90.16C350.762 90.16 349.722 90.5733 348.949 91.4C348.175 92.2267 347.789 93.3867 347.789 94.88V107H340.949V84.68H347.789V87.64C348.482 86.6533 349.415 85.88 350.589 85.32C351.762 84.7333 353.082 84.44 354.549 84.44ZM415.018 78.92L407.698 107H399.418L394.938 88.52L390.298 107H382.018L374.898 78.92H382.218L386.258 99.36L391.258 78.92H398.778L403.578 99.36L407.658 78.92H415.018ZM439.489 95.48C439.489 96.12 439.449 96.7867 439.369 97.48H423.889C423.995 98.8667 424.435 99.9333 425.209 100.68C426.009 101.4 426.982 101.76 428.129 101.76C429.835 101.76 431.022 101.04 431.689 99.6H438.969C438.595 101.067 437.915 102.387 436.929 103.56C435.969 104.733 434.755 105.653 433.289 106.32C431.822 106.987 430.182 107.32 428.369 107.32C426.182 107.32 424.235 106.853 422.529 105.92C420.822 104.987 419.489 103.653 418.529 101.92C417.569 100.187 417.089 98.16 417.089 95.84C417.089 93.52 417.555 91.4933 418.489 89.76C419.449 88.0267 420.782 86.6933 422.489 85.76C424.195 84.8267 426.155 84.36 428.369 84.36C430.529 84.36 432.449 84.8133 434.129 85.72C435.809 86.6267 437.115 87.92 438.049 89.6C439.009 91.28 439.489 93.24 439.489 95.48ZM432.489 93.68C432.489 92.5067 432.089 91.5733 431.289 90.88C430.489 90.1867 429.489 89.84 428.289 89.84C427.142 89.84 426.169 90.1733 425.369 90.84C424.595 91.5067 424.115 92.4533 423.929 93.68H432.489ZM449.937 87.84C450.577 86.8 451.497 85.96 452.697 85.32C453.897 84.68 455.271 84.36 456.817 84.36C458.657 84.36 460.324 84.8267 461.817 85.76C463.311 86.6933 464.484 88.0267 465.337 89.76C466.217 91.4933 466.657 93.5067 466.657 95.8C466.657 98.0933 466.217 100.12 465.337 101.88C464.484 103.613 463.311 104.96 461.817 105.92C460.324 106.853 458.657 107.32 456.817 107.32C455.244 107.32 453.871 107.013 452.697 106.4C451.524 105.76 450.604 104.92 449.937 103.88V107H443.097V77.4H449.937V87.84ZM459.697 95.8C459.697 94.0933 459.217 92.76 458.257 91.8C457.324 90.8133 456.164 90.32 454.777 90.32C453.417 90.32 452.257 90.8133 451.297 91.8C450.364 92.7867 449.897 94.1333 449.897 95.84C449.897 97.5467 450.364 98.8933 451.297 99.88C452.257 100.867 453.417 101.36 454.777 101.36C456.137 101.36 457.297 100.867 458.257 99.88C459.217 98.8667 459.697 97.5067 459.697 95.8Z" fill="#5BBC21"/>
<path d="M54.432 38.608V51.76H36.576V106H20.16V51.76H2.304V38.608H54.432ZM104.623 94.096H79.4708L75.4388 106H58.2548L82.6388 38.608H101.647L126.031 106H108.655L104.623 94.096ZM100.399 81.424L92.0468 56.752L83.7908 81.424H100.399ZM149.868 93.328H171.372V106H133.452V38.608H149.868V93.328ZM195.618 93.328H217.122V106H179.202V38.608H195.618V93.328ZM282.744 38.608L259.416 83.728V106H243V83.728L219.672 38.608H238.296L251.352 66.832L264.312 38.608H282.744Z" fill="#1A1A1A"/>
</svg>
