<svg width="26" height="28" fill="none" xmlns="http://www.w3.org/2000/svg"><path d="M13.438 19.72a1.66 1.66 0 0 1-.586-.102 1.35 1.35 0 0 1-.508-.351l-5.625-5.935c-.287-.302-.43-.687-.43-1.154 0-.467.143-.852.43-1.154.286-.302.658-.46 1.114-.473.456-.013.827.13 1.112.432l2.93 3.09V2.288c0-.468.15-.86.45-1.176.3-.316.67-.474 1.113-.473.442 0 .814.158 1.114.475.3.316.449.708.448 1.174v11.787l2.93-3.091c.286-.303.657-.447 1.114-.434.456.013.827.171 1.112.475.287.302.43.687.43 1.154 0 .467-.143.852-.43 1.154l-5.625 5.935a1.375 1.375 0 0 1-.508.35c-.182.07-.377.104-.585.103Zm-9.376 7.295c-.859 0-1.595-.323-2.207-.97-.613-.646-.919-1.422-.917-2.327V20.42c0-.468.15-.86.45-1.176.3-.316.67-.474 1.112-.473.443 0 .814.158 1.114.475.3.316.45.708.449 1.174v3.297h18.75V20.42c0-.468.15-.86.45-1.176.3-.316.67-.474 1.112-.473.443 0 .814.158 1.114.475.3.316.45.708.448 1.174v3.297c0 .906-.306 1.683-.918 2.33-.613.645-1.348.968-2.206.967H4.063Z" fill="#fff"/></svg>