<svg width="1024" height="1024" viewBox="0 0 1024 1024" fill="none" xmlns="http://www.w3.org/2000/svg">
<ellipse cx="514.816" cy="507.314" rx="400.204" ry="400.122" fill="#E3FED3"/>
<g filter="url(#filter0_d_347_954)">
<path d="M686.187 400.252H261.478C248.684 400.252 238.312 413.818 238.312 430.552V809.3C238.312 826.034 248.684 839.6 261.478 839.6H686.187C698.981 839.6 709.353 826.034 709.353 809.3V430.552C709.353 413.818 698.981 400.252 686.187 400.252Z" fill="#FDFDFD" stroke="#D9D9D9" stroke-width="6.27816"/>
<path d="M311.589 437.599V463.592H306.376V437.599H311.589ZM328.172 442.664C330.63 442.664 332.616 443.446 334.131 445.01C335.645 446.549 336.402 448.709 336.402 451.489V463.592H331.189V452.197C331.189 450.559 330.779 449.305 329.96 448.436C329.141 447.542 328.024 447.095 326.608 447.095C325.169 447.095 324.026 447.542 323.182 448.436C322.363 449.305 321.954 450.559 321.954 452.197V463.592H316.74V442.962H321.954V445.531C322.649 444.637 323.53 443.942 324.598 443.446C325.69 442.924 326.882 442.664 328.172 442.664ZM340.02 453.203C340.02 451.117 340.429 449.268 341.248 447.654C342.093 446.04 343.222 444.799 344.637 443.93C346.077 443.061 347.678 442.627 349.441 442.627C350.98 442.627 352.321 442.937 353.463 443.558C354.63 444.178 355.561 444.96 356.256 445.904V442.962H361.507V463.592H356.256V460.576C355.586 461.544 354.655 462.351 353.463 462.996C352.296 463.617 350.943 463.927 349.404 463.927C347.666 463.927 346.077 463.481 344.637 462.587C343.222 461.693 342.093 460.439 341.248 458.826C340.429 457.187 340.02 455.313 340.02 453.203ZM356.256 453.277C356.256 452.011 356.008 450.931 355.511 450.037C355.015 449.119 354.344 448.423 353.5 447.952C352.656 447.455 351.75 447.207 350.782 447.207C349.813 447.207 348.92 447.443 348.1 447.915C347.281 448.386 346.611 449.081 346.09 450C345.593 450.894 345.345 451.961 345.345 453.203C345.345 454.444 345.593 455.536 346.09 456.48C346.611 457.398 347.281 458.106 348.1 458.602C348.945 459.099 349.838 459.347 350.782 459.347C351.75 459.347 352.656 459.111 353.5 458.639C354.344 458.143 355.015 457.448 355.511 456.554C356.008 455.635 356.256 454.543 356.256 453.277ZM365.258 453.277C365.258 451.142 365.692 449.28 366.561 447.691C367.43 446.077 368.634 444.836 370.174 443.967C371.713 443.073 373.475 442.627 375.462 442.627C378.019 442.627 380.129 443.272 381.792 444.563C383.48 445.829 384.61 447.617 385.181 449.925H379.558C379.26 449.032 378.751 448.337 378.031 447.84C377.336 447.319 376.467 447.058 375.424 447.058C373.935 447.058 372.755 447.604 371.887 448.697C371.018 449.764 370.583 451.291 370.583 453.277C370.583 455.238 371.018 456.765 371.887 457.857C372.755 458.925 373.935 459.459 375.424 459.459C377.534 459.459 378.912 458.515 379.558 456.629H385.181C384.61 458.863 383.48 460.638 381.792 461.954C380.104 463.27 377.994 463.927 375.462 463.927C373.475 463.927 371.713 463.493 370.174 462.624C368.634 461.73 367.43 460.489 366.561 458.9C365.692 457.286 365.258 455.412 365.258 453.277ZM395.07 447.244V457.224C395.07 457.919 395.232 458.428 395.554 458.751C395.902 459.049 396.473 459.198 397.267 459.198H399.688V463.592H396.411C392.017 463.592 389.82 461.457 389.82 457.187V447.244H387.362V442.962H389.82V437.86H395.07V442.962H399.688V447.244H395.07ZM406.082 440.504C405.163 440.504 404.394 440.218 403.773 439.647C403.177 439.052 402.879 438.319 402.879 437.45C402.879 436.581 403.177 435.861 403.773 435.29C404.394 434.695 405.163 434.397 406.082 434.397C407 434.397 407.758 434.695 408.353 435.29C408.974 435.861 409.284 436.581 409.284 437.45C409.284 438.319 408.974 439.052 408.353 439.647C407.758 440.218 407 440.504 406.082 440.504ZM408.651 442.962V463.592H403.438V442.962H408.651ZM422.405 458.788L427.618 442.962H433.167L425.533 463.592H419.202L411.605 442.962H417.191L422.405 458.788ZM455.273 452.83C455.273 453.575 455.224 454.245 455.124 454.841H440.042C440.167 456.331 440.688 457.497 441.606 458.342C442.525 459.186 443.655 459.608 444.995 459.608C446.932 459.608 448.31 458.776 449.129 457.113H454.752C454.156 459.099 453.014 460.737 451.326 462.028C449.638 463.294 447.565 463.927 445.107 463.927C443.121 463.927 441.333 463.493 439.744 462.624C438.18 461.73 436.952 460.477 436.058 458.863C435.189 457.249 434.754 455.387 434.754 453.277C434.754 451.142 435.189 449.268 436.058 447.654C436.927 446.04 438.143 444.799 439.707 443.93C441.271 443.061 443.071 442.627 445.107 442.627C447.068 442.627 448.818 443.049 450.358 443.893C451.922 444.737 453.126 445.941 453.97 447.505C454.839 449.044 455.273 450.819 455.273 452.83ZM449.874 451.341C449.849 450 449.365 448.932 448.421 448.138C447.478 447.319 446.323 446.909 444.958 446.909C443.667 446.909 442.575 447.306 441.681 448.101C440.812 448.87 440.278 449.95 440.08 451.341H449.874ZM473.166 437.599V463.592H467.952V437.599H473.166ZM484.387 447.244V457.224C484.387 457.919 484.548 458.428 484.871 458.751C485.218 459.049 485.789 459.198 486.584 459.198H489.004V463.592H485.727C481.333 463.592 479.136 461.457 479.136 457.187V447.244H476.678V442.962H479.136V437.86H484.387V442.962H489.004V447.244H484.387ZM511.932 452.83C511.932 453.575 511.883 454.245 511.783 454.841H496.701C496.826 456.331 497.347 457.497 498.266 458.342C499.184 459.186 500.314 459.608 501.654 459.608C503.591 459.608 504.969 458.776 505.788 457.113H511.411C510.815 459.099 509.673 460.737 507.985 462.028C506.297 463.294 504.224 463.927 501.766 463.927C499.78 463.927 497.992 463.493 496.404 462.624C494.84 461.73 493.611 460.477 492.717 458.863C491.848 457.249 491.413 455.387 491.413 453.277C491.413 451.142 491.848 449.268 492.717 447.654C493.586 446.04 494.802 444.799 496.366 443.93C497.93 443.061 499.73 442.627 501.766 442.627C503.727 442.627 505.478 443.049 507.017 443.893C508.581 444.737 509.785 445.941 510.629 447.505C511.498 449.044 511.932 450.819 511.932 452.83ZM506.533 451.341C506.508 450 506.024 448.932 505.08 448.138C504.137 447.319 502.983 446.909 501.617 446.909C500.326 446.909 499.234 447.306 498.34 448.101C497.471 448.87 496.937 449.95 496.739 451.341H506.533ZM541.358 442.664C543.891 442.664 545.926 443.446 547.466 445.01C549.03 446.549 549.812 448.709 549.812 451.489V463.592H544.598V452.197C544.598 450.583 544.189 449.354 543.369 448.51C542.55 447.641 541.433 447.207 540.018 447.207C538.603 447.207 537.473 447.641 536.629 448.51C535.81 449.354 535.4 450.583 535.4 452.197V463.592H530.187V452.197C530.187 450.583 529.777 449.354 528.958 448.51C528.138 447.641 527.021 447.207 525.606 447.207C524.166 447.207 523.024 447.641 522.18 448.51C521.361 449.354 520.951 450.583 520.951 452.197V463.592H515.738V442.962H520.951V445.457C521.622 444.588 522.478 443.905 523.521 443.409C524.588 442.912 525.755 442.664 527.021 442.664C528.635 442.664 530.075 443.011 531.341 443.706C532.607 444.377 533.588 445.345 534.283 446.611C534.953 445.419 535.922 444.464 537.188 443.744C538.479 443.024 539.869 442.664 541.358 442.664ZM562.654 463.927C560.966 463.927 559.451 463.63 558.111 463.034C556.77 462.413 555.702 461.581 554.908 460.539C554.138 459.496 553.716 458.342 553.642 457.075H558.893C558.992 457.87 559.377 458.528 560.047 459.049C560.742 459.57 561.599 459.831 562.617 459.831C563.61 459.831 564.379 459.633 564.925 459.235C565.496 458.838 565.782 458.329 565.782 457.708C565.782 457.038 565.434 456.542 564.739 456.219C564.069 455.871 562.989 455.499 561.499 455.102C559.96 454.729 558.694 454.345 557.701 453.947C556.733 453.55 555.889 452.942 555.169 452.123C554.474 451.303 554.126 450.199 554.126 448.808C554.126 447.666 554.449 446.624 555.094 445.68C555.765 444.737 556.708 443.992 557.924 443.446C559.166 442.9 560.618 442.627 562.281 442.627C564.739 442.627 566.7 443.247 568.165 444.488C569.63 445.705 570.437 447.356 570.586 449.441H565.596C565.521 448.622 565.174 447.977 564.553 447.505C563.957 447.008 563.15 446.76 562.132 446.76C561.189 446.76 560.457 446.934 559.935 447.281C559.439 447.629 559.191 448.113 559.191 448.734C559.191 449.429 559.538 449.963 560.233 450.335C560.928 450.683 562.008 451.043 563.473 451.415C564.963 451.787 566.192 452.172 567.16 452.569C568.128 452.967 568.96 453.587 569.655 454.431C570.375 455.251 570.747 456.343 570.772 457.708C570.772 458.9 570.437 459.968 569.767 460.911C569.121 461.854 568.178 462.599 566.936 463.145C565.72 463.667 564.292 463.927 562.654 463.927Z" fill="black"/>
<path d="M350.141 558.617V514.664H306.183V558.617H350.141Z" fill="#F3EDDF"/>
<path d="M378.737 514.24C378.737 512.706 379.08 511.335 379.765 510.129C380.465 508.907 381.411 507.961 382.603 507.291C383.809 506.606 385.157 506.263 386.647 506.263C388.39 506.263 389.916 506.71 391.227 507.604C392.538 508.498 393.454 509.734 393.975 511.313H390.378C390.021 510.568 389.514 510.01 388.859 509.637C388.218 509.265 387.473 509.079 386.624 509.079C385.716 509.079 384.904 509.295 384.189 509.727C383.489 510.144 382.938 510.74 382.536 511.514C382.148 512.289 381.955 513.197 381.955 514.24C381.955 515.268 382.148 516.176 382.536 516.966C382.938 517.741 383.489 518.344 384.189 518.776C384.904 519.193 385.716 519.401 386.624 519.401C387.473 519.401 388.218 519.215 388.859 518.843C389.514 518.456 390.021 517.889 390.378 517.145H393.975C393.454 518.739 392.538 519.982 391.227 520.876C389.931 521.755 388.404 522.194 386.647 522.194C385.157 522.194 383.809 521.859 382.603 521.189C381.411 520.504 380.465 519.558 379.765 518.351C379.08 517.145 378.737 515.774 378.737 514.24ZM395.843 515.826C395.843 514.575 396.089 513.465 396.58 512.497C397.087 511.529 397.764 510.784 398.613 510.263C399.477 509.742 400.438 509.481 401.496 509.481C402.419 509.481 403.224 509.667 403.909 510.039C404.609 510.412 405.168 510.881 405.585 511.447V509.682H408.735V522.06H405.585V520.25C405.183 520.831 404.624 521.316 403.909 521.703C403.209 522.075 402.397 522.261 401.473 522.261C400.431 522.261 399.477 521.993 398.613 521.457C397.764 520.921 397.087 520.169 396.58 519.2C396.089 518.217 395.843 517.093 395.843 515.826ZM405.585 515.871C405.585 515.111 405.436 514.463 405.138 513.927C404.84 513.376 404.438 512.959 403.931 512.676C403.425 512.378 402.881 512.229 402.3 512.229C401.719 512.229 401.183 512.371 400.691 512.654C400.2 512.937 399.798 513.354 399.485 513.905C399.187 514.441 399.038 515.082 399.038 515.826C399.038 516.571 399.187 517.227 399.485 517.793C399.798 518.344 400.2 518.768 400.691 519.066C401.198 519.364 401.734 519.513 402.3 519.513C402.881 519.513 403.425 519.372 403.931 519.089C404.438 518.791 404.84 518.374 405.138 517.837C405.436 517.286 405.585 516.631 405.585 515.871ZM414.918 511.469C415.321 510.903 415.872 510.434 416.572 510.062C417.287 509.674 418.099 509.481 419.007 509.481C420.065 509.481 421.018 509.742 421.867 510.263C422.731 510.784 423.409 511.529 423.901 512.497C424.407 513.451 424.66 514.56 424.66 515.826C424.66 517.093 424.407 518.217 423.901 519.2C423.409 520.169 422.731 520.921 421.867 521.457C421.018 521.993 420.065 522.261 419.007 522.261C418.099 522.261 417.294 522.075 416.594 521.703C415.909 521.33 415.35 520.861 414.918 520.295V527.959H411.79V509.682H414.918V511.469ZM421.465 515.826C421.465 515.082 421.309 514.441 420.996 513.905C420.698 513.354 420.296 512.937 419.789 512.654C419.298 512.371 418.762 512.229 418.181 512.229C417.615 512.229 417.078 512.378 416.572 512.676C416.08 512.959 415.678 513.376 415.365 513.927C415.067 514.478 414.918 515.126 414.918 515.871C414.918 516.616 415.067 517.264 415.365 517.815C415.678 518.366 416.08 518.791 416.572 519.089C417.078 519.372 417.615 519.513 418.181 519.513C418.762 519.513 419.298 519.364 419.789 519.066C420.296 518.768 420.698 518.344 420.996 517.793C421.309 517.242 421.465 516.586 421.465 515.826Z" fill="#3E3E3E"/>
<path d="M598.02 531.87H377.465V541.411H598.02V531.87Z" fill="#BCBCBC"/>
<path d="M598.02 553.649H377.465V563.191H598.02V553.649Z" fill="#BCBCBC"/>
<path d="M347.231 511.022H308.132C306.651 511.022 305.23 511.61 304.183 512.658C303.135 513.705 302.547 515.125 302.547 516.607V555.701C302.547 557.182 303.135 558.603 304.183 559.65C305.23 560.698 306.651 561.286 308.132 561.286H347.231C348.712 561.286 350.133 560.698 351.18 559.65C352.228 558.603 352.816 557.182 352.816 555.701V516.607C352.816 515.125 352.228 513.705 351.18 512.658C350.133 511.61 348.712 511.022 347.231 511.022ZM337.735 550.116L327.681 540.063L317.628 550.116L313.718 546.207L323.772 536.154L313.718 526.101L317.628 522.192L327.681 532.244L337.735 522.192L341.645 526.101L331.591 536.154L341.645 546.207L337.735 550.116Z" fill="#DB0000"/>
<path d="M347.231 589.21H308.132C306.651 589.21 305.23 589.799 304.183 590.846C303.135 591.893 302.547 593.314 302.547 594.795V633.89C302.547 635.371 303.135 636.792 304.183 637.839C305.23 638.886 306.651 639.475 308.132 639.475H347.231C348.712 639.475 350.133 638.886 351.18 637.839C352.228 636.792 352.816 635.371 352.816 633.89V594.795C352.816 593.314 352.228 591.893 351.18 590.846C350.133 589.799 348.712 589.21 347.231 589.21ZM337.735 628.305L327.681 618.252L317.628 628.305L313.718 624.395L323.772 614.343L313.718 604.29L317.628 600.38L327.681 610.433L337.735 600.38L341.645 604.29L331.591 614.343L341.645 624.395L337.735 628.305Z" fill="#DB0000"/>
<path d="M388.588 582.789V593.738C388.588 595.257 388.148 596.441 387.269 597.29C386.391 598.125 385.214 598.542 383.739 598.542C382.25 598.542 381.043 598.11 380.119 597.246C379.211 596.382 378.757 595.175 378.757 593.626H381.885C381.9 594.296 382.056 594.818 382.354 595.19C382.667 595.563 383.114 595.749 383.694 595.749C384.26 595.749 384.692 595.57 384.99 595.212C385.288 594.855 385.437 594.363 385.437 593.738V582.789H388.588ZM403.744 591.928C403.744 592.375 403.714 592.777 403.654 593.135H394.605C394.68 594.028 394.992 594.728 395.544 595.235C396.095 595.741 396.772 595.994 397.577 595.994C398.739 595.994 399.565 595.495 400.057 594.497H403.431C403.073 595.689 402.388 596.672 401.375 597.447C400.362 598.207 399.119 598.586 397.644 598.586C396.452 598.586 395.38 598.326 394.426 597.804C393.488 597.268 392.751 596.516 392.214 595.548C391.693 594.579 391.432 593.462 391.432 592.196C391.432 590.915 391.693 589.79 392.214 588.822C392.736 587.854 393.466 587.109 394.404 586.588C395.342 586.066 396.422 585.806 397.644 585.806C398.821 585.806 399.871 586.059 400.794 586.565C401.733 587.072 402.455 587.794 402.962 588.733C403.483 589.656 403.744 590.721 403.744 591.928ZM400.504 591.034C400.489 590.23 400.198 589.589 399.632 589.113C399.066 588.621 398.374 588.375 397.554 588.375C396.78 588.375 396.124 588.614 395.588 589.09C395.067 589.552 394.747 590.2 394.627 591.034H400.504ZM405.223 592.151C405.223 590.9 405.468 589.79 405.96 588.822C406.466 587.854 407.144 587.109 407.993 586.588C408.857 586.066 409.818 585.806 410.875 585.806C411.799 585.806 412.603 585.992 413.289 586.364C413.989 586.737 414.547 587.206 414.964 587.772V586.007H418.115V598.385H414.964V596.575C414.562 597.156 414.004 597.64 413.289 598.028C412.588 598.4 411.777 598.586 410.853 598.586C409.81 598.586 408.857 598.318 407.993 597.782C407.144 597.246 406.466 596.493 405.96 595.525C405.468 594.542 405.223 593.418 405.223 592.151ZM414.964 592.196C414.964 591.436 414.815 590.788 414.517 590.252C414.22 589.701 413.817 589.284 413.311 589.001C412.804 588.703 412.261 588.554 411.68 588.554C411.099 588.554 410.563 588.696 410.071 588.979C409.58 589.262 409.177 589.679 408.865 590.23C408.567 590.766 408.418 591.407 408.418 592.151C408.418 592.896 408.567 593.552 408.865 594.118C409.177 594.669 409.58 595.093 410.071 595.391C410.578 595.689 411.114 595.838 411.68 595.838C412.261 595.838 412.804 595.697 413.311 595.414C413.817 595.116 414.22 594.699 414.517 594.162C414.815 593.611 414.964 592.956 414.964 592.196ZM428.029 585.828C429.504 585.828 430.696 586.297 431.604 587.236C432.513 588.159 432.967 589.455 432.967 591.124V598.385H429.839V591.548C429.839 590.565 429.593 589.813 429.102 589.291C428.61 588.755 427.94 588.487 427.091 588.487C426.227 588.487 425.542 588.755 425.035 589.291C424.544 589.813 424.298 590.565 424.298 591.548V598.385H421.17V586.007H424.298V587.549C424.715 587.012 425.244 586.595 425.884 586.297C426.54 585.985 427.255 585.828 428.029 585.828ZM440.679 598.586C439.666 598.586 438.757 598.408 437.953 598.05C437.149 597.678 436.508 597.179 436.031 596.553C435.57 595.927 435.316 595.235 435.272 594.475H438.422C438.482 594.952 438.713 595.347 439.115 595.659C439.532 595.972 440.046 596.129 440.657 596.129C441.252 596.129 441.714 596.009 442.042 595.771C442.384 595.533 442.556 595.227 442.556 594.855C442.556 594.453 442.347 594.155 441.93 593.961C441.528 593.753 440.88 593.529 439.986 593.291C439.063 593.067 438.303 592.837 437.707 592.598C437.126 592.36 436.62 591.995 436.188 591.503C435.771 591.012 435.562 590.349 435.562 589.515C435.562 588.83 435.756 588.204 436.143 587.638C436.545 587.072 437.111 586.625 437.841 586.297C438.586 585.97 439.457 585.806 440.455 585.806C441.93 585.806 443.107 586.178 443.986 586.923C444.865 587.653 445.349 588.643 445.438 589.895H442.444C442.399 589.403 442.191 589.016 441.818 588.733C441.461 588.435 440.977 588.286 440.366 588.286C439.8 588.286 439.361 588.39 439.048 588.599C438.75 588.807 438.601 589.098 438.601 589.47C438.601 589.887 438.809 590.207 439.227 590.431C439.644 590.639 440.292 590.855 441.17 591.079C442.064 591.302 442.802 591.533 443.382 591.772C443.963 592.01 444.462 592.382 444.879 592.889C445.311 593.38 445.535 594.036 445.55 594.855C445.55 595.57 445.349 596.21 444.947 596.777C444.559 597.343 443.993 597.789 443.248 598.117C442.519 598.43 441.662 598.586 440.679 598.586Z" fill="#3E3E3E"/>
<path d="M598.016 608.928H377.461V618.47H598.016V608.928Z" fill="#BCBCBC"/>
<path d="M598.016 630.705H377.461V640.247H598.016V630.705Z" fill="#BCBCBC"/>
<path d="M347.231 665.537H308.132C306.651 665.537 305.23 666.126 304.183 667.173C303.135 668.22 302.547 669.641 302.547 671.122V710.217C302.547 711.698 303.135 713.118 304.183 714.166C305.23 715.213 306.651 715.801 308.132 715.801H347.231C348.712 715.801 350.133 715.213 351.18 714.166C352.228 713.118 352.816 711.698 352.816 710.217V671.122C352.816 669.641 352.228 668.22 351.18 667.173C350.133 666.126 348.712 665.537 347.231 665.537ZM337.735 704.632L327.681 694.579L317.628 704.632L313.718 700.722L323.772 690.669L313.718 680.616L317.628 676.707L327.681 686.76L337.735 676.707L341.645 680.616L331.591 690.669L341.645 700.722L337.735 704.632Z" fill="#DB0000"/>
<path d="M390.107 659.119V661.643H385.951V674.714H382.823V661.643H378.667V659.119H390.107ZM401.908 665.419V668.056H392.434V665.419H401.908ZM410.801 674.871C409.713 674.871 408.73 674.685 407.851 674.312C406.987 673.94 406.302 673.404 405.796 672.703C405.289 672.003 405.029 671.177 405.014 670.223H408.365C408.41 670.864 408.633 671.37 409.036 671.743C409.453 672.115 410.019 672.301 410.734 672.301C411.464 672.301 412.037 672.13 412.454 671.787C412.871 671.43 413.08 670.968 413.08 670.402C413.08 669.94 412.938 669.56 412.655 669.263C412.372 668.965 412.015 668.734 411.583 668.57C411.166 668.391 410.585 668.197 409.84 667.989C408.827 667.691 408 667.401 407.36 667.118C406.734 666.82 406.191 666.38 405.729 665.799C405.282 665.203 405.058 664.414 405.058 663.431C405.058 662.507 405.289 661.703 405.751 661.018C406.213 660.333 406.861 659.811 407.695 659.454C408.529 659.081 409.482 658.895 410.555 658.895C412.164 658.895 413.467 659.29 414.465 660.079C415.478 660.854 416.037 661.941 416.141 663.341H412.7C412.67 662.805 412.439 662.366 412.007 662.023C411.59 661.666 411.032 661.487 410.332 661.487C409.721 661.487 409.229 661.643 408.857 661.956C408.499 662.269 408.321 662.723 408.321 663.319C408.321 663.736 408.455 664.086 408.723 664.369C409.006 664.637 409.348 664.861 409.751 665.04C410.168 665.203 410.749 665.397 411.493 665.621C412.506 665.918 413.333 666.216 413.974 666.514C414.614 666.812 415.165 667.259 415.627 667.855C416.089 668.451 416.32 669.233 416.32 670.201C416.32 671.035 416.104 671.81 415.672 672.525C415.24 673.24 414.607 673.813 413.772 674.245C412.938 674.662 411.948 674.871 410.801 674.871ZM426.003 662.157C426.941 662.157 427.775 662.366 428.505 662.783C429.235 663.185 429.801 663.788 430.203 664.593C430.62 665.382 430.829 666.335 430.829 667.453V674.714H427.701V667.877C427.701 666.894 427.455 666.142 426.964 665.621C426.472 665.084 425.802 664.816 424.953 664.816C424.089 664.816 423.403 665.084 422.897 665.621C422.405 666.142 422.16 666.894 422.16 667.877V674.714H419.032V658.18H422.16V663.878C422.562 663.341 423.098 662.924 423.768 662.626C424.439 662.314 425.184 662.157 426.003 662.157ZM435.39 660.861C434.839 660.861 434.377 660.69 434.005 660.347C433.647 659.99 433.469 659.55 433.469 659.029C433.469 658.508 433.647 658.076 434.005 657.733C434.377 657.376 434.839 657.197 435.39 657.197C435.941 657.197 436.396 657.376 436.753 657.733C437.125 658.076 437.312 658.508 437.312 659.029C437.312 659.55 437.125 659.99 436.753 660.347C436.396 660.69 435.941 660.861 435.39 660.861ZM436.932 662.336V674.714H433.804V662.336H436.932ZM443.15 664.258C443.553 663.602 444.074 663.088 444.715 662.716C445.37 662.343 446.115 662.157 446.949 662.157V665.442H446.122C445.139 665.442 444.394 665.673 443.888 666.134C443.396 666.596 443.15 667.401 443.15 668.548V674.714H440.022V662.336H443.15V664.258ZM452.698 664.906V670.894C452.698 671.311 452.795 671.616 452.988 671.81C453.197 671.988 453.539 672.078 454.016 672.078H455.468V674.714H453.502C450.866 674.714 449.547 673.433 449.547 670.871V664.906H448.073V662.336H449.547V659.275H452.698V662.336H455.468V664.906H452.698Z" fill="#3E3E3E"/>
<path d="M598.016 685.988H377.461V695.53H598.016V685.988Z" fill="#BCBCBC"/>
<path d="M598.016 707.766H377.461V717.307H598.016V707.766Z" fill="#BCBCBC"/>
<path d="M347.231 742.796H308.132C306.651 742.796 305.23 743.384 304.183 744.432C303.135 745.479 302.547 746.9 302.547 748.381V787.475C302.547 788.957 303.135 790.377 304.183 791.424C305.23 792.472 306.651 793.06 308.132 793.06H347.231C348.712 793.06 350.133 792.472 351.18 791.424C352.228 790.377 352.816 788.957 352.816 787.475V748.381C352.816 746.9 352.228 745.479 351.18 744.432C350.133 743.384 348.712 742.796 347.231 742.796ZM337.735 781.89L327.681 771.838L317.628 781.89L313.718 777.981L323.772 767.928L313.718 757.875L317.628 753.966L327.681 764.019L337.735 753.966L341.645 757.875L331.591 767.928L341.645 777.981L337.735 781.89Z" fill="#DB0000"/>
<path d="M384.879 753.06C383.791 753.06 382.808 752.874 381.929 752.502C381.065 752.129 380.38 751.593 379.874 750.893C379.367 750.193 379.107 749.366 379.092 748.413H382.443C382.488 749.054 382.711 749.56 383.114 749.932C383.531 750.305 384.097 750.491 384.812 750.491C385.542 750.491 386.115 750.32 386.532 749.977C386.949 749.62 387.158 749.158 387.158 748.592C387.158 748.13 387.016 747.75 386.733 747.452C386.45 747.154 386.093 746.923 385.661 746.76C385.244 746.581 384.663 746.387 383.918 746.179C382.905 745.881 382.078 745.59 381.438 745.307C380.812 745.009 380.268 744.57 379.807 743.989C379.36 743.393 379.136 742.604 379.136 741.621C379.136 740.697 379.367 739.893 379.829 739.207C380.291 738.522 380.939 738.001 381.773 737.643C382.607 737.271 383.56 737.085 384.633 737.085C386.242 737.085 387.545 737.48 388.543 738.269C389.556 739.044 390.115 740.131 390.219 741.531H386.778C386.748 740.995 386.517 740.555 386.085 740.213C385.668 739.855 385.11 739.677 384.409 739.677C383.799 739.677 383.307 739.833 382.935 740.146C382.577 740.459 382.399 740.913 382.399 741.509C382.399 741.926 382.533 742.276 382.801 742.559C383.084 742.827 383.426 743.051 383.829 743.229C384.246 743.393 384.827 743.587 385.571 743.81C386.584 744.108 387.411 744.406 388.051 744.704C388.692 745.002 389.243 745.449 389.705 746.045C390.167 746.64 390.398 747.422 390.398 748.391C390.398 749.225 390.182 749.999 389.75 750.714C389.318 751.429 388.685 752.003 387.85 752.435C387.016 752.852 386.026 753.06 384.879 753.06ZM400.081 740.347C401.019 740.347 401.853 740.555 402.583 740.973C403.313 741.375 403.879 741.978 404.281 742.782C404.698 743.572 404.907 744.525 404.907 745.642V752.904H401.779V746.067C401.779 745.084 401.533 744.332 401.041 743.81C400.55 743.274 399.88 743.006 399.031 743.006C398.167 743.006 397.481 743.274 396.975 743.81C396.483 744.332 396.238 745.084 396.238 746.067V752.904H393.109V736.37H396.238V742.067C396.64 741.531 397.176 741.114 397.846 740.816C398.517 740.503 399.261 740.347 400.081 740.347ZM413.378 753.105C412.186 753.105 411.114 752.844 410.161 752.323C409.207 751.787 408.455 751.035 407.904 750.066C407.368 749.098 407.1 747.981 407.1 746.715C407.1 745.449 407.375 744.332 407.926 743.363C408.492 742.395 409.259 741.65 410.228 741.129C411.196 740.593 412.276 740.325 413.467 740.325C414.659 740.325 415.739 740.593 416.707 741.129C417.676 741.65 418.435 742.395 418.986 743.363C419.552 744.332 419.835 745.449 419.835 746.715C419.835 747.981 419.545 749.098 418.964 750.066C418.398 751.035 417.623 751.787 416.64 752.323C415.672 752.844 414.585 753.105 413.378 753.105ZM413.378 750.379C413.944 750.379 414.473 750.245 414.965 749.977C415.471 749.694 415.873 749.277 416.171 748.726C416.469 748.175 416.618 747.504 416.618 746.715C416.618 745.538 416.305 744.637 415.68 744.011C415.069 743.371 414.317 743.051 413.423 743.051C412.529 743.051 411.777 743.371 411.166 744.011C410.57 744.637 410.272 745.538 410.272 746.715C410.272 747.892 410.563 748.8 411.144 749.441C411.74 750.066 412.484 750.379 413.378 750.379ZM433.637 746.447C433.637 746.894 433.607 747.296 433.548 747.653H424.498C424.573 748.547 424.886 749.247 425.437 749.754C425.988 750.26 426.666 750.513 427.47 750.513C428.632 750.513 429.459 750.014 429.95 749.016H433.324C432.967 750.208 432.281 751.191 431.269 751.966C430.256 752.725 429.012 753.105 427.537 753.105C426.346 753.105 425.273 752.844 424.32 752.323C423.381 751.787 422.644 751.035 422.108 750.066C421.586 749.098 421.326 747.981 421.326 746.715C421.326 745.434 421.586 744.309 422.108 743.341C422.629 742.373 423.359 741.628 424.297 741.107C425.236 740.585 426.316 740.325 427.537 740.325C428.714 740.325 429.764 740.578 430.688 741.084C431.626 741.591 432.348 742.313 432.855 743.252C433.376 744.175 433.637 745.24 433.637 746.447ZM430.397 745.553C430.382 744.749 430.092 744.108 429.526 743.631C428.96 743.14 428.267 742.894 427.448 742.894C426.673 742.894 426.018 743.132 425.482 743.609C424.96 744.071 424.64 744.719 424.521 745.553H430.397ZM440.657 753.105C439.644 753.105 438.736 752.926 437.931 752.569C437.127 752.197 436.486 751.697 436.01 751.072C435.548 750.446 435.295 749.754 435.25 748.994H438.4C438.46 749.471 438.691 749.865 439.093 750.178C439.51 750.491 440.024 750.647 440.635 750.647C441.231 750.647 441.692 750.528 442.02 750.29C442.363 750.052 442.534 749.746 442.534 749.374C442.534 748.972 442.325 748.674 441.908 748.48C441.506 748.271 440.858 748.048 439.964 747.81C439.041 747.586 438.281 747.355 437.685 747.117C437.104 746.879 436.598 746.514 436.166 746.022C435.749 745.531 435.54 744.868 435.54 744.034C435.54 743.348 435.734 742.723 436.121 742.157C436.523 741.591 437.09 741.144 437.819 740.816C438.564 740.488 439.436 740.325 440.434 740.325C441.908 740.325 443.085 740.697 443.964 741.442C444.843 742.172 445.327 743.162 445.416 744.413H442.422C442.378 743.922 442.169 743.535 441.797 743.252C441.439 742.954 440.955 742.805 440.344 742.805C439.778 742.805 439.339 742.909 439.026 743.118C438.728 743.326 438.579 743.617 438.579 743.989C438.579 744.406 438.788 744.726 439.205 744.95C439.622 745.158 440.27 745.374 441.149 745.598C442.042 745.821 442.78 746.052 443.361 746.29C443.942 746.529 444.441 746.901 444.858 747.408C445.29 747.899 445.513 748.554 445.528 749.374C445.528 750.089 445.327 750.729 444.925 751.295C444.537 751.861 443.971 752.308 443.227 752.636C442.497 752.949 441.64 753.105 440.657 753.105Z" fill="#3E3E3E"/>
<path d="M598.016 763.048H377.461V772.59H598.016V763.048Z" fill="#BCBCBC"/>
<path d="M598.016 784.826H377.461V794.367H598.016V784.826Z" fill="#BCBCBC"/>
</g>
<g filter="url(#filter1_d_347_954)">
<rect x="256.94" y="89.3586" width="532.48" height="119.145" rx="5.5859" fill="white"/>
</g>
<path d="M756.836 123.799H717.738C716.256 123.799 714.836 124.388 713.788 125.435C712.741 126.482 712.152 127.903 712.152 129.384V168.479C712.152 169.96 712.741 171.381 713.788 172.428C714.836 173.475 716.256 174.064 717.738 174.064H756.836C758.317 174.064 759.738 173.475 760.785 172.428C761.833 171.381 762.421 169.96 762.421 168.479V129.384C762.421 127.903 761.833 126.482 760.785 125.435C759.738 124.388 758.317 123.799 756.836 123.799ZM747.341 162.894L737.287 152.841L727.233 162.894L723.323 158.984L733.377 148.931L723.323 138.879L727.233 134.969L737.287 145.022L747.341 134.969L751.251 138.879L741.197 148.931L751.251 158.984L747.341 162.894Z" fill="#DB0000"/>
<path d="M400.22 130.754H393.491L392.377 133.973H388.819L394.895 117.054H398.84L404.916 133.973H401.334L400.22 130.754ZM399.3 128.043L396.856 120.975L394.411 128.043H399.3ZM410.576 122.645C411.011 121.935 411.576 121.378 412.27 120.975C412.98 120.572 413.787 120.37 414.691 120.37V123.928H413.795C412.73 123.928 411.923 124.178 411.375 124.678C410.842 125.179 410.576 126.05 410.576 127.293V133.973H407.187V120.563H410.576V122.645ZM429.633 120.563V133.973H426.22V132.279C425.784 132.86 425.211 133.32 424.501 133.659C423.807 133.981 423.049 134.143 422.226 134.143C421.177 134.143 420.249 133.925 419.442 133.489C418.635 133.037 417.998 132.384 417.53 131.529C417.078 130.657 416.852 129.624 416.852 128.43V120.563H420.241V127.946C420.241 129.011 420.507 129.834 421.04 130.415C421.572 130.98 422.298 131.262 423.218 131.262C424.154 131.262 424.888 130.98 425.421 130.415C425.953 129.834 426.22 129.011 426.22 127.946V120.563H429.633ZM440.407 120.37C442.005 120.37 443.296 120.878 444.28 121.895C445.265 122.895 445.757 124.299 445.757 126.107V133.973H442.368V126.566C442.368 125.501 442.102 124.687 441.569 124.122C441.037 123.541 440.311 123.25 439.391 123.25C438.455 123.25 437.713 123.541 437.164 124.122C436.631 124.687 436.365 125.501 436.365 126.566V133.973H432.976V120.563H436.365V122.234C436.817 121.653 437.39 121.201 438.084 120.878C438.794 120.539 439.568 120.37 440.407 120.37ZM464.284 133.973L458.136 126.445V133.973H454.747V117.078H458.136V124.654L464.284 117.078H468.375L461.404 125.453L468.569 133.973H464.284ZM483.457 120.563V133.973H480.044V132.279C479.608 132.86 479.035 133.32 478.325 133.659C477.632 133.981 476.873 134.143 476.05 134.143C475.001 134.143 474.073 133.925 473.266 133.489C472.46 133.037 471.822 132.384 471.354 131.529C470.902 130.657 470.676 129.624 470.676 128.43V120.563H474.065V127.946C474.065 129.011 474.332 129.834 474.864 130.415C475.397 130.98 476.123 131.262 477.043 131.262C477.978 131.262 478.713 130.98 479.245 130.415C479.778 129.834 480.044 129.011 480.044 127.946V120.563H483.457ZM503.454 120.37C505.1 120.37 506.423 120.878 507.424 121.895C508.44 122.895 508.949 124.299 508.949 126.107V133.973H505.56V126.566C505.56 125.518 505.294 124.719 504.761 124.17C504.229 123.605 503.502 123.323 502.583 123.323C501.663 123.323 500.929 123.605 500.38 124.17C499.847 124.719 499.581 125.518 499.581 126.566V133.973H496.192V126.566C496.192 125.518 495.926 124.719 495.394 124.17C494.861 123.605 494.135 123.323 493.215 123.323C492.279 123.323 491.537 123.605 490.988 124.17C490.456 124.719 490.189 125.518 490.189 126.566V133.973H486.801V120.563H490.189V122.185C490.625 121.62 491.182 121.177 491.86 120.854C492.553 120.531 493.312 120.37 494.135 120.37C495.184 120.37 496.12 120.596 496.943 121.048C497.766 121.483 498.403 122.113 498.855 122.936C499.291 122.161 499.92 121.54 500.743 121.072C501.582 120.604 502.486 120.37 503.454 120.37ZM511.293 127.22C511.293 125.865 511.559 124.662 512.092 123.613C512.64 122.564 513.375 121.758 514.295 121.193C515.23 120.628 516.271 120.346 517.417 120.346C518.418 120.346 519.289 120.547 520.031 120.951C520.79 121.354 521.395 121.863 521.847 122.476V120.563H525.26V133.973H521.847V132.013C521.411 132.642 520.806 133.167 520.031 133.586C519.273 133.99 518.393 134.191 517.393 134.191C516.263 134.191 515.23 133.901 514.295 133.32C513.375 132.739 512.64 131.924 512.092 130.875C511.559 129.81 511.293 128.592 511.293 127.22ZM521.847 127.268C521.847 126.445 521.685 125.743 521.363 125.163C521.04 124.565 520.604 124.114 520.055 123.807C519.507 123.484 518.918 123.323 518.288 123.323C517.659 123.323 517.078 123.476 516.546 123.783C516.013 124.089 515.577 124.541 515.239 125.138C514.916 125.719 514.754 126.413 514.754 127.22C514.754 128.027 514.916 128.737 515.239 129.35C515.577 129.947 516.013 130.407 516.546 130.73C517.094 131.053 517.675 131.214 518.288 131.214C518.918 131.214 519.507 131.061 520.055 130.754C520.604 130.431 521.04 129.979 521.363 129.399C521.685 128.801 521.847 128.091 521.847 127.268ZM531.958 122.645C532.394 121.935 532.959 121.378 533.653 120.975C534.363 120.572 535.169 120.37 536.073 120.37V123.928H535.178C534.112 123.928 533.306 124.178 532.757 124.678C532.224 125.179 531.958 126.05 531.958 127.293V133.973H528.569V120.563H531.958V122.645Z" fill="black"/>
<rect x="389.153" y="156.376" width="204.8" height="9.30716" fill="#5B5B5B"/>
<rect x="389.153" y="178.716" width="148.945" height="9.30716" fill="#5B5B5B"/>
<path fill-rule="evenodd" clip-rule="evenodd" d="M320.251 126.591C316.343 126.59 312.503 127.614 309.115 129.561C305.727 131.508 302.909 134.309 300.942 137.685C298.975 141.061 297.928 144.894 297.905 148.802C297.882 152.709 298.885 156.554 300.813 159.952C302.116 158.259 303.791 156.888 305.709 155.945C307.627 155.002 309.735 154.513 311.872 154.515H328.629C330.766 154.513 332.874 155.002 334.792 155.945C336.71 156.888 338.385 158.259 339.688 159.952C341.616 156.554 342.619 152.709 342.596 148.802C342.574 144.894 341.526 141.061 339.559 137.685C337.592 134.309 334.774 131.508 331.386 129.561C327.998 127.614 324.158 126.59 320.251 126.591ZM342.433 165.898C346.167 161.03 348.187 155.065 348.178 148.931C348.178 133.508 335.675 121.006 320.251 121.006C304.826 121.006 292.323 133.508 292.323 148.931C292.314 155.065 294.334 161.03 298.068 165.898L298.054 165.948L299.045 167.101C301.665 170.163 304.917 172.621 308.578 174.305C312.238 175.989 316.221 176.859 320.251 176.855C325.912 176.866 331.442 175.146 336.099 171.926C338.085 170.555 339.885 168.933 341.456 167.101L342.447 165.948L342.433 165.898ZM320.251 132.176C318.029 132.176 315.897 133.058 314.326 134.629C312.755 136.2 311.872 138.331 311.872 140.553C311.872 142.775 312.755 144.906 314.326 146.477C315.897 148.048 318.029 148.931 320.251 148.931C322.473 148.931 324.604 148.048 326.175 146.477C327.746 144.906 328.629 142.775 328.629 140.553C328.629 138.331 327.746 136.2 326.175 134.629C324.604 133.058 322.473 132.176 320.251 132.176Z" fill="#5B5B5B"/>
<g filter="url(#filter2_d_347_954)">
<rect x="344.447" y="221.535" width="532.48" height="119.145" rx="5.5859" fill="white"/>
</g>
<path d="M844.34 255.976H805.242C803.76 255.976 802.34 256.565 801.292 257.612C800.245 258.659 799.656 260.08 799.656 261.561V300.656C799.656 302.137 800.245 303.558 801.292 304.605C802.34 305.652 803.76 306.241 805.242 306.241H844.34C845.821 306.241 847.242 305.652 848.289 304.605C849.337 303.558 849.925 302.137 849.925 300.656V261.561C849.925 260.08 849.337 258.659 848.289 257.612C847.242 256.565 845.821 255.976 844.34 255.976ZM834.845 295.071L824.791 285.018L814.737 295.071L810.827 291.161L820.881 281.108L810.827 271.056L814.737 267.146L824.791 277.199L834.845 267.146L838.754 271.056L828.701 281.108L838.754 291.161L834.845 295.071Z" fill="#DB0000"/>
<path d="M482.436 266.32C481.258 266.32 480.193 266.119 479.241 265.715C478.305 265.312 477.563 264.731 477.014 263.972C476.465 263.214 476.183 262.318 476.167 261.286H479.798C479.846 261.98 480.088 262.528 480.524 262.932C480.976 263.335 481.589 263.537 482.363 263.537C483.154 263.537 483.775 263.351 484.227 262.98C484.679 262.593 484.905 262.093 484.905 261.479C484.905 260.979 484.752 260.568 484.445 260.245C484.138 259.922 483.751 259.672 483.283 259.494C482.831 259.301 482.202 259.091 481.395 258.865C480.298 258.542 479.402 258.228 478.708 257.921C478.031 257.598 477.442 257.122 476.941 256.493C476.457 255.847 476.215 254.992 476.215 253.927C476.215 252.927 476.465 252.055 476.966 251.313C477.466 250.571 478.168 250.006 479.071 249.619C479.975 249.215 481.008 249.013 482.17 249.013C483.913 249.013 485.325 249.441 486.406 250.296C487.503 251.135 488.108 252.313 488.221 253.83H484.493C484.461 253.249 484.211 252.773 483.743 252.402C483.291 252.015 482.686 251.821 481.928 251.821C481.266 251.821 480.734 251.991 480.33 252.33C479.943 252.668 479.749 253.161 479.749 253.806C479.749 254.258 479.894 254.637 480.185 254.944C480.491 255.234 480.863 255.476 481.298 255.67C481.75 255.847 482.38 256.057 483.186 256.299C484.284 256.622 485.179 256.945 485.873 257.268C486.567 257.59 487.164 258.074 487.664 258.72C488.165 259.365 488.415 260.213 488.415 261.261C488.415 262.165 488.181 263.004 487.713 263.779C487.245 264.553 486.559 265.175 485.655 265.643C484.752 266.095 483.679 266.32 482.436 266.32ZM490.481 259.398C490.481 258.042 490.748 256.84 491.28 255.791C491.829 254.742 492.563 253.935 493.483 253.37C494.419 252.806 495.46 252.523 496.605 252.523C497.606 252.523 498.477 252.725 499.22 253.128C499.978 253.532 500.583 254.04 501.035 254.653V252.741H504.448V266.151H501.035V264.19C500.599 264.82 499.994 265.344 499.22 265.764C498.461 266.167 497.582 266.369 496.581 266.369C495.452 266.369 494.419 266.078 493.483 265.497C492.563 264.917 491.829 264.102 491.28 263.053C490.748 261.988 490.481 260.769 490.481 259.398ZM501.035 259.446C501.035 258.623 500.874 257.921 500.551 257.34C500.228 256.743 499.792 256.291 499.244 255.985C498.695 255.662 498.106 255.501 497.477 255.501C496.847 255.501 496.266 255.654 495.734 255.96C495.201 256.267 494.766 256.719 494.427 257.316C494.104 257.897 493.943 258.591 493.943 259.398C493.943 260.204 494.104 260.915 494.427 261.528C494.766 262.125 495.201 262.585 495.734 262.907C496.283 263.23 496.864 263.392 497.477 263.392C498.106 263.392 498.695 263.238 499.244 262.932C499.792 262.609 500.228 262.157 500.551 261.576C500.874 260.979 501.035 260.269 501.035 259.446ZM515.189 252.547C516.786 252.547 518.077 253.056 519.062 254.072C520.046 255.073 520.538 256.477 520.538 258.284V266.151H517.149V258.744C517.149 257.679 516.883 256.864 516.351 256.299C515.818 255.718 515.092 255.428 514.172 255.428C513.236 255.428 512.494 255.718 511.945 256.299C511.413 256.864 511.146 257.679 511.146 258.744V266.151H507.758V252.741H511.146V254.411C511.598 253.83 512.171 253.379 512.865 253.056C513.575 252.717 514.35 252.547 515.189 252.547ZM525.479 251.144C524.866 251.144 524.358 250.958 523.954 250.587C523.567 250.2 523.374 249.723 523.374 249.159C523.374 248.594 523.567 248.126 523.954 247.755C524.358 247.367 524.866 247.174 525.479 247.174C526.076 247.174 526.569 247.367 526.956 247.755C527.343 248.126 527.537 248.594 527.537 249.159C527.537 249.723 527.343 250.2 526.956 250.587C526.569 250.958 526.076 251.144 525.479 251.144ZM527.15 268.354C527.15 269.838 526.778 270.903 526.036 271.549C525.31 272.21 524.261 272.541 522.889 272.541H521.389V269.661H522.357C522.873 269.661 523.236 269.556 523.446 269.346C523.656 269.152 523.761 268.83 523.761 268.378V252.741H527.15V268.354ZM529.626 259.398C529.626 258.042 529.893 256.84 530.425 255.791C530.974 254.742 531.708 253.935 532.628 253.37C533.564 252.806 534.605 252.523 535.75 252.523C536.751 252.523 537.622 252.725 538.365 253.128C539.123 253.532 539.728 254.04 540.18 254.653V252.741H543.593V266.151H540.18V264.19C539.744 264.82 539.139 265.344 538.365 265.764C537.606 266.167 536.727 266.369 535.726 266.369C534.597 266.369 533.564 266.078 532.628 265.497C531.708 264.917 530.974 264.102 530.425 263.053C529.893 261.988 529.626 260.769 529.626 259.398ZM540.18 259.446C540.18 258.623 540.019 257.921 539.696 257.34C539.373 256.743 538.937 256.291 538.389 255.985C537.84 255.662 537.251 255.501 536.622 255.501C535.992 255.501 535.411 255.654 534.879 255.96C534.346 256.267 533.911 256.719 533.572 257.316C533.249 257.897 533.088 258.591 533.088 259.398C533.088 260.204 533.249 260.915 533.572 261.528C533.911 262.125 534.346 262.585 534.879 262.907C535.428 263.23 536.009 263.392 536.622 263.392C537.251 263.392 537.84 263.238 538.389 262.932C538.937 262.609 539.373 262.157 539.696 261.576C540.019 260.979 540.18 260.269 540.18 259.446ZM559.732 252.741L551.429 272.493H547.822L550.727 265.812L545.353 252.741H549.154L552.615 262.109L556.125 252.741H559.732ZM573.16 266.32C571.982 266.32 570.917 266.119 569.965 265.715C569.029 265.312 568.286 264.731 567.738 263.972C567.189 263.214 566.907 262.318 566.89 261.286H570.521C570.57 261.98 570.812 262.528 571.247 262.932C571.699 263.335 572.312 263.537 573.087 263.537C573.878 263.537 574.499 263.351 574.951 262.98C575.403 262.593 575.629 262.093 575.629 261.479C575.629 260.979 575.475 260.568 575.169 260.245C574.862 259.922 574.475 259.672 574.007 259.494C573.555 259.301 572.926 259.091 572.119 258.865C571.021 258.542 570.126 258.228 569.432 257.921C568.754 257.598 568.165 257.122 567.665 256.493C567.181 255.847 566.939 254.992 566.939 253.927C566.939 252.927 567.189 252.055 567.689 251.313C568.189 250.571 568.891 250.006 569.795 249.619C570.699 249.215 571.732 249.013 572.893 249.013C574.636 249.013 576.048 249.441 577.129 250.296C578.227 251.135 578.832 252.313 578.945 253.83H575.217C575.185 253.249 574.935 252.773 574.467 252.402C574.015 252.015 573.41 251.821 572.651 251.821C571.99 251.821 571.457 251.991 571.054 252.33C570.666 252.668 570.473 253.161 570.473 253.806C570.473 254.258 570.618 254.637 570.909 254.944C571.215 255.234 571.586 255.476 572.022 255.67C572.474 255.847 573.103 256.057 573.91 256.299C575.007 256.622 575.903 256.945 576.597 257.268C577.291 257.59 577.888 258.074 578.388 258.72C578.888 259.365 579.138 260.213 579.138 261.261C579.138 262.165 578.904 263.004 578.436 263.779C577.968 264.553 577.283 265.175 576.379 265.643C575.475 266.095 574.402 266.32 573.16 266.32ZM589.629 252.547C590.645 252.547 591.549 252.773 592.34 253.225C593.13 253.661 593.743 254.314 594.179 255.186C594.631 256.041 594.857 257.074 594.857 258.284V266.151H591.468V258.744C591.468 257.679 591.202 256.864 590.669 256.299C590.137 255.718 589.411 255.428 588.491 255.428C587.555 255.428 586.813 255.718 586.264 256.299C585.731 256.864 585.465 257.679 585.465 258.744V266.151H582.076V248.239H585.465V254.411C585.901 253.83 586.482 253.379 587.208 253.056C587.934 252.717 588.741 252.547 589.629 252.547ZM597.208 259.398C597.208 258.042 597.474 256.84 598.007 255.791C598.556 254.742 599.29 253.935 600.21 253.37C601.146 252.806 602.186 252.523 603.332 252.523C604.333 252.523 605.204 252.725 605.946 253.128C606.705 253.532 607.31 254.04 607.762 254.653V252.741H611.175V266.151H607.762V264.19C607.326 264.82 606.721 265.344 605.946 265.764C605.188 266.167 604.308 266.369 603.308 266.369C602.178 266.369 601.146 266.078 600.21 265.497C599.29 264.917 598.556 264.102 598.007 263.053C597.474 261.988 597.208 260.769 597.208 259.398ZM607.762 259.446C607.762 258.623 607.6 257.921 607.278 257.34C606.955 256.743 606.519 256.291 605.971 255.985C605.422 255.662 604.833 255.501 604.203 255.501C603.574 255.501 602.993 255.654 602.461 255.96C601.928 256.267 601.492 256.719 601.154 257.316C600.831 257.897 600.669 258.591 600.669 259.398C600.669 260.204 600.831 260.915 601.154 261.528C601.492 262.125 601.928 262.585 602.461 262.907C603.009 263.23 603.59 263.392 604.203 263.392C604.833 263.392 605.422 263.238 605.971 262.932C606.519 262.609 606.955 262.157 607.278 261.576C607.6 260.979 607.762 260.269 607.762 259.446ZM617.873 254.823C618.309 254.113 618.874 253.556 619.568 253.153C620.278 252.749 621.084 252.547 621.988 252.547V256.106H621.093C620.028 256.106 619.221 256.356 618.672 256.856C618.139 257.356 617.873 258.228 617.873 259.47V266.151H614.484V252.741H617.873V254.823ZM640.924 252.547C642.57 252.547 643.893 253.056 644.894 254.072C645.91 255.073 646.419 256.477 646.419 258.284V266.151H643.03V258.744C643.03 257.695 642.764 256.896 642.231 256.348C641.699 255.783 640.973 255.501 640.053 255.501C639.133 255.501 638.399 255.783 637.85 256.348C637.317 256.896 637.051 257.695 637.051 258.744V266.151H633.662V258.744C633.662 257.695 633.396 256.896 632.864 256.348C632.331 255.783 631.605 255.501 630.685 255.501C629.749 255.501 629.007 255.783 628.458 256.348C627.926 256.896 627.659 257.695 627.659 258.744V266.151H624.271V252.741H627.659V254.363C628.095 253.798 628.652 253.354 629.33 253.032C630.024 252.709 630.782 252.547 631.605 252.547C632.654 252.547 633.59 252.773 634.413 253.225C635.236 253.661 635.873 254.29 636.325 255.113C636.761 254.339 637.39 253.717 638.213 253.249C639.052 252.781 639.956 252.547 640.924 252.547ZM648.763 259.398C648.763 258.042 649.029 256.84 649.562 255.791C650.111 254.742 650.845 253.935 651.765 253.37C652.701 252.806 653.741 252.523 654.887 252.523C655.888 252.523 656.759 252.725 657.501 253.128C658.26 253.532 658.865 254.04 659.317 254.653V252.741H662.73V266.151H659.317V264.19C658.881 264.82 658.276 265.344 657.501 265.764C656.743 266.167 655.863 266.369 654.863 266.369C653.733 266.369 652.701 266.078 651.765 265.497C650.845 264.917 650.111 264.102 649.562 263.053C649.029 261.988 648.763 260.769 648.763 259.398ZM659.317 259.446C659.317 258.623 659.155 257.921 658.833 257.34C658.51 256.743 658.074 256.291 657.526 255.985C656.977 255.662 656.388 255.501 655.759 255.501C655.129 255.501 654.548 255.654 654.016 255.96C653.483 256.267 653.048 256.719 652.709 257.316C652.386 257.897 652.225 258.591 652.225 259.398C652.225 260.204 652.386 260.915 652.709 261.528C653.048 262.125 653.483 262.585 654.016 262.907C654.564 263.23 655.145 263.392 655.759 263.392C656.388 263.392 656.977 263.238 657.526 262.932C658.074 262.609 658.51 262.157 658.833 261.576C659.155 260.979 659.317 260.269 659.317 259.446Z" fill="black"/>
<rect x="476.64" y="288.554" width="204.8" height="9.30716" fill="#5B5B5B"/>
<rect x="476.64" y="310.894" width="148.945" height="9.30716" fill="#5B5B5B"/>
<path fill-rule="evenodd" clip-rule="evenodd" d="M407.75 258.768C403.842 258.768 400.002 259.792 396.614 261.738C393.226 263.685 390.408 266.486 388.441 269.863C386.474 273.239 385.427 277.072 385.404 280.979C385.381 284.886 386.384 288.731 388.312 292.13C389.615 290.436 391.29 289.065 393.208 288.123C395.126 287.18 397.234 286.691 399.371 286.693H416.128C418.265 286.691 420.373 287.18 422.291 288.123C424.209 289.065 425.884 290.436 427.187 292.13C429.115 288.731 430.118 284.886 430.095 280.979C430.073 277.072 429.025 273.239 427.058 269.863C425.091 266.486 422.273 263.685 418.885 261.738C415.497 259.792 411.657 258.768 407.75 258.768ZM429.932 298.075C433.666 293.208 435.686 287.242 435.677 281.108C435.677 265.685 423.174 253.183 407.75 253.183C392.325 253.183 379.822 265.685 379.822 281.108C379.813 287.242 381.833 293.208 385.567 298.075L385.553 298.125L386.544 299.279C389.164 302.341 392.416 304.798 396.077 306.482C399.737 308.166 403.72 309.036 407.75 309.033C413.411 309.043 418.941 307.323 423.598 304.104C425.584 302.732 427.384 301.11 428.955 299.279L429.946 298.125L429.932 298.075ZM407.75 264.353C405.528 264.353 403.397 265.236 401.825 266.807C400.254 268.378 399.371 270.509 399.371 272.731C399.371 274.952 400.254 277.083 401.825 278.654C403.397 280.225 405.528 281.108 407.75 281.108C409.972 281.108 412.103 280.225 413.674 278.654C415.245 277.083 416.128 274.952 416.128 272.731C416.128 270.509 415.245 268.378 413.674 266.807C412.103 265.236 409.972 264.353 407.75 264.353Z" fill="#5B5B5B"/>
<path d="M973.724 124.731L872.95 141.937L870.082 182.33L887.365 155.219L973.724 124.731Z" fill="#5BBC21"/>
<path d="M870.138 182.424L870.08 182.462L870.061 182.558L870.138 182.424Z" fill="#A0F171"/>
<path d="M973.724 124.731L835.95 125.429L872.95 141.937L973.724 124.731Z" fill="#A0F171"/>
<path d="M887.363 155.218L870.08 182.329L869.966 182.499L870.08 182.461L870.136 182.423L900.57 170.877L887.363 155.218Z" fill="#7FDF46"/>
<path d="M973.724 124.731L887.365 155.219L928.082 203.498L973.724 124.731Z" fill="#A0F171"/>
<path d="M782.383 716.12H762.766V576.838H782.383V716.12Z" fill="#878787"/>
<path d="M816.012 716.12H796.498V610.569H816.012V716.12Z" fill="#878787"/>
<path d="M849.652 716.122H830.138V663.398H849.652V716.122Z" fill="#878787"/>
<path d="M883.278 716.123H863.764V633.197H883.278V716.123Z" fill="#878787"/>
<path d="M917.009 716.123H897.392V601.542H917.009V716.123Z" fill="#878787"/>
<path d="M950.641 716.119H931.023V582.96H950.641V716.119Z" fill="#878787"/>
<defs>
<filter id="filter0_d_347_954" x="197.934" y="359.874" width="551.796" height="520.105" filterUnits="userSpaceOnUse" color-interpolation-filters="sRGB">
<feFlood flood-opacity="0" result="BackgroundImageFix"/>
<feColorMatrix in="SourceAlpha" type="matrix" values="0 0 0 0 0 0 0 0 0 0 0 0 0 0 0 0 0 0 127 0" result="hardAlpha"/>
<feOffset/>
<feGaussianBlur stdDeviation="18.6197"/>
<feComposite in2="hardAlpha" operator="out"/>
<feColorMatrix type="matrix" values="0 0 0 0 0 0 0 0 0 0 0 0 0 0 0 0 0 0 0.25 0"/>
<feBlend mode="normal" in2="BackgroundImageFix" result="effect1_dropShadow_347_954"/>
<feBlend mode="normal" in="SourceGraphic" in2="effect1_dropShadow_347_954" result="shape"/>
</filter>
<filter id="filter1_d_347_954" x="219.701" y="52.1193" width="606.959" height="193.624" filterUnits="userSpaceOnUse" color-interpolation-filters="sRGB">
<feFlood flood-opacity="0" result="BackgroundImageFix"/>
<feColorMatrix in="SourceAlpha" type="matrix" values="0 0 0 0 0 0 0 0 0 0 0 0 0 0 0 0 0 0 127 0" result="hardAlpha"/>
<feOffset/>
<feGaussianBlur stdDeviation="18.6197"/>
<feComposite in2="hardAlpha" operator="out"/>
<feColorMatrix type="matrix" values="0 0 0 0 0 0 0 0 0 0 0 0 0 0 0 0 0 0 0.25 0"/>
<feBlend mode="normal" in2="BackgroundImageFix" result="effect1_dropShadow_347_954"/>
<feBlend mode="normal" in="SourceGraphic" in2="effect1_dropShadow_347_954" result="shape"/>
</filter>
<filter id="filter2_d_347_954" x="307.208" y="184.296" width="606.959" height="193.624" filterUnits="userSpaceOnUse" color-interpolation-filters="sRGB">
<feFlood flood-opacity="0" result="BackgroundImageFix"/>
<feColorMatrix in="SourceAlpha" type="matrix" values="0 0 0 0 0 0 0 0 0 0 0 0 0 0 0 0 0 0 127 0" result="hardAlpha"/>
<feOffset/>
<feGaussianBlur stdDeviation="18.6197"/>
<feComposite in2="hardAlpha" operator="out"/>
<feColorMatrix type="matrix" values="0 0 0 0 0 0 0 0 0 0 0 0 0 0 0 0 0 0 0.25 0"/>
<feBlend mode="normal" in2="BackgroundImageFix" result="effect1_dropShadow_347_954"/>
<feBlend mode="normal" in="SourceGraphic" in2="effect1_dropShadow_347_954" result="shape"/>
</filter>
</defs>
</svg>
