<svg xmlns="http://www.w3.org/2000/svg" width="58" height="48" fill="none"><path fill="#000" fill-rule="evenodd" d="M26.818 13.31a.721.721 0 0 0-1.238.743l6.352 10.578a1.732 1.732 0 1 0 3.062.951l7.09-4.284a.72.72 0 1 0-.746-1.235l-7.055 4.264A1.724 1.724 0 0 0 33.237 24l-6.42-10.69Z" clip-rule="evenodd"/><path fill="#000" fill-rule="evenodd" d="M29.523 2.066c0-.478.387-.866.865-.866h6.061c.478 0 .866.388.866.866v1.732a.866.866 0 0 1-.866.865h-1.443v2.354a18.648 18.648 0 0 1 7.923 2.374l.596-.847-.852-.6a.433.433 0 0 1-.105-.603l.722-1.025a.433.433 0 0 1 .603-.105l3.517 2.476a.433.433 0 0 1 .105.603l-.721 1.024a.433.433 0 0 1-.603.105l-1.005-.707-.544.774c4.739 3.405 7.825 8.965 7.825 15.246 0 2.017-.319 3.959-.908 5.78a7.954 7.954 0 0 0-1.23-.908c.452-1.546.694-3.18.694-4.872 0-9.564-7.752-17.317-17.316-17.317-4.191 0-7.375 1.194-10.363 3.66a.722.722 0 1 1-.918-1.114c2.747-2.267 5.683-3.553 9.261-3.895V4.663h-1.299a.866.866 0 0 1-.865-.865V2.066Zm10.23 39.898a17.279 17.279 0 0 1-6.046 1.084c-5.605 0-9.983-2.128-13.137-6.213a.722.722 0 0 0-1.143.882c3.444 4.46 8.255 6.774 14.28 6.774 2.49 0 4.865-.484 7.038-1.364a7.985 7.985 0 0 1-.992-1.163Z" clip-rule="evenodd"/><path fill="#000" fill-rule="evenodd" d="M29.425 13.415c1.481-.582 2.824-.815 4.541-.815 7.27 0 13.16 5.88 13.16 13.131 0 1.306-.191 2.568-.547 3.758.496.02.98.085 1.448.191a14.56 14.56 0 0 0 .542-3.949c0-8.05-6.54-14.574-14.603-14.574-1.875 0-3.4.259-5.07.915a.722.722 0 0 0 .529 1.343Zm9.188 26.137a7.916 7.916 0 0 1-.26-1.437c-1.372.485-2.848.748-4.387.748-3.783 0-6.733-1.237-9.117-3.744a.721.721 0 1 0-1.045.994c2.675 2.815 6.014 4.193 10.162 4.193 1.625 0 3.188-.265 4.647-.754Z" clip-rule="evenodd"/><path fill="#000" fill-rule="evenodd" d="M55.636 37.421a9.38 9.38 0 1 1-18.759 0 9.38 9.38 0 1 1 18.76 0Zm-9.38 7.937a7.937 7.937 0 1 0 0-15.873 7.937 7.937 0 0 0 0 15.873Z" clip-rule="evenodd"/><path fill="#4ABE04" d="M49.864 33.922v-1.263h-6.926v1.263h2.203c.82 0 1.512.529 1.773 1.262h-3.976v1.263h3.976a1.89 1.89 0 0 1-1.773 1.263h-2.203v1.524l3.517 3.526h1.78l-3.777-3.788h.684a3.148 3.148 0 0 0 1.99-.712c.561-.46.948-1.1 1.094-1.813h1.638v-1.263h-1.638a3.118 3.118 0 0 0-.582-1.262h2.22ZM12.923 14.432c0-.374.304-.678.678-.678h1.692a.678.678 0 1 1 0 1.356h-1.692a.678.678 0 0 1-.678-.678ZM16.586 14.432c0-.374.304-.678.678-.678h5.311a.678.678 0 1 1 0 1.356h-5.31a.678.678 0 0 1-.679-.678ZM11.385 19.421c0-.374.303-.678.678-.678H24.23a.678.678 0 0 1 0 1.356H12.062a.678.678 0 0 1-.677-.678ZM2.245 24.288c0-.398.323-.721.722-.721h16.306a.722.722 0 1 1 0 1.443H2.967a.721.721 0 0 1-.722-.722ZM5.766 29.155c0-.399.323-.727.721-.727h9.986a.726.726 0 0 1 0 1.453H6.487a.726.726 0 0 1-.721-.726ZM19.1 29.155c0-.399.323-.727.722-.727h5.223a.726.726 0 0 1 0 1.453h-5.223a.726.726 0 0 1-.722-.726ZM7.478 34.385c0-.399.323-.727.722-.727h12.842a.726.726 0 0 1 0 1.453H8.2a.726.726 0 0 1-.722-.726ZM20.721 24.312c0-.398.323-.726.722-.726h1.414a.726.726 0 0 1 0 1.453h-1.414a.726.726 0 0 1-.722-.727Z"/></svg>