<svg width="24" height="27" viewBox="0 0 24 27" fill="none" xmlns="http://www.w3.org/2000/svg">
<path d="M11.4233 0.231752C11.5785 0.083031 11.7851 0 12 0C12.2149 0 12.4215 0.083031 12.5767 0.231752C14.4153 1.99375 17.0327 2.94975 19.268 3.45842C20.374 3.70908 21.3607 3.84509 22.0693 3.91842C22.436 3.95603 22.8037 3.98315 23.172 3.99975H23.1867C23.4042 4.00497 23.6111 4.09507 23.763 4.25079C23.915 4.40651 24.0001 4.61549 24 4.83309V11.3331C24 17.6644 20.6267 24.0104 12.2487 26.6284C12.0868 26.679 11.9132 26.679 11.7513 26.6284C7.59267 25.3284 4.63933 23.1004 2.73133 20.3498C0.829333 17.6051 3.46169e-08 14.3911 3.46169e-08 11.1664V4.83309C-6.26406e-05 4.61549 0.0849839 4.40651 0.236965 4.25079C0.388945 4.09507 0.595804 4.00497 0.813333 3.99975H0.828L0.881333 3.99775C1.23177 3.9806 1.58168 3.95392 1.93067 3.91775C2.87277 3.82036 3.80822 3.66676 4.732 3.45775C6.96667 2.94975 9.584 1.99442 11.4233 0.231752ZM17.742 10.1024C17.8235 10.0274 17.8891 9.93698 17.9352 9.83633C17.9814 9.73568 18.0069 9.62685 18.0105 9.5162C18.0141 9.40555 17.9956 9.29529 17.9561 9.19188C17.9165 9.08846 17.8568 8.99395 17.7804 8.91388C17.7039 8.8338 17.6123 8.76976 17.5108 8.72549C17.4094 8.68122 17.3001 8.65762 17.1894 8.65605C17.0787 8.65449 16.9688 8.675 16.8661 8.71638C16.7634 8.75777 16.67 8.8192 16.5913 8.89709L9.84667 15.3351L7.42267 12.9104C7.26637 12.7541 7.05438 12.6663 6.83333 12.6663C6.61229 12.6663 6.4003 12.7541 6.244 12.9104C6.0877 13.0667 5.99989 13.2787 5.99989 13.4998C5.99989 13.7208 6.0877 13.9328 6.244 14.0891L9.244 17.0891C9.564 17.4091 10.0813 17.4158 10.4087 17.1024L17.742 10.1024Z" fill="white"/>
</svg>
