<svg width="51" height="51" fill="none" xmlns="http://www.w3.org/2000/svg"><g clip-path="url(#a)"><path d="M.137 9.943C.137 4.55 4.509.178 9.903.178h40.234v40.234c0 5.394-4.372 9.766-9.766 9.766H.137V9.943Z" fill="#5BBC21"/><path d="M50.186.129C41.22 26.008 13.085 44.278.137 50.178V9.748C.762 2.21 6.729.227 9.634.178l40.552-.05Z" fill="#5BBC21"/><path d="M20.01 16.781a8.447 8.447 0 0 1 8.447-8.447V50.18H20.01V16.78ZM34.22 12.389a8.447 8.447 0 0 1 8.446-8.448V48.62c0 .863-.7 1.563-1.562 1.563h-6.885V12.389ZM5.801 21.467a8.447 8.447 0 0 1 8.447-8.447v37.158H5.801V21.467Z" fill="#fff"/></g><path d="M50.137.178c-9.326 25.732-38.696 44.678-50 50h40.356c5.689-.122 7.988-4.157 8.594-5.322.952-1.831 1.05-3.394 1.05-4.444V.178Z" fill="#1A1A1A"/><defs><clipPath id="a"><path d="M.137 9.943C.137 4.55 4.509.178 9.903.178h40.234v40.234c0 5.394-4.372 9.766-9.766 9.766H.137V9.943Z" fill="#fff"/></clipPath></defs></svg>