<svg xmlns="http://www.w3.org/2000/svg" width="50" height="50" fill="none"><path fill="#1A1A1A" fill-rule="evenodd" d="M0 0h29.917l10.026 9.61v8.466c0 .366-.3.662-.671.662a.667.667 0 0 1-.67-.662v-7.523h-9.627V1.326H1.341v44.147h16.715c.37 0 .67.297.67.662 0 .366-.3.663-.67.663H0V0ZM30.316 2.23l7.302 6.999h-7.302v-7Z" clip-rule="evenodd"/><path fill="#1A1A1A" fill-rule="evenodd" d="M7.425 20.019c0-.366.3-.663.67-.663H23.23c.37 0 .67.297.67.663 0 .366-.3.662-.67.662H8.095a.667.667 0 0 1-.67-.662ZM7.425 27.777c0-.366.3-.662.67-.662h10.632c.37 0 .671.296.671.662 0 .366-.3.662-.67.662H8.095a.667.667 0 0 1-.67-.662ZM7.425 35.824c0-.366.3-.662.67-.662h8.142c.37 0 .67.296.67.662 0 .366-.3.663-.67.663H8.095a.667.667 0 0 1-.67-.663ZM9.053 8.568v3.88h14.08v-3.88H9.054ZM8.67 7.243a.952.952 0 0 0-.958.946v4.637c0 .523.429.947.958.947h14.847a.952.952 0 0 0 .958-.947V8.19a.952.952 0 0 0-.958-.946H8.67ZM42.82 22.647H28.18c-3.235 0-5.857 2.574-5.857 5.75v14.557c0 3.175 2.622 5.749 5.856 5.749h14.642c3.234 0 5.857-2.574 5.857-5.75V28.397c0-3.175-2.623-5.749-5.857-5.749ZM28.18 21.35c-3.966 0-7.18 3.155-7.18 7.047v14.558C21 46.846 24.214 50 28.18 50h14.64c3.966 0 7.18-3.155 7.18-7.047V28.396c0-3.892-3.214-7.047-7.18-7.047H28.18Z" clip-rule="evenodd"/><path fill="#4ABE04" d="m32.09 36.942-.502.48a.361.361 0 0 0-.11.26v.205c0 .096.038.187.106.255a.367.367 0 0 0 .258.105h2.995a.37.37 0 0 0 .337-.222.358.358 0 0 0 .028-.138v-.266a.356.356 0 0 0-.225-.333.37.37 0 0 0-.14-.028h-1.655l.046-.041c1.081-1.03 1.847-1.84 1.847-2.894 0-.844-.555-1.695-1.795-1.695-.541 0-1.071.172-1.493.483a.362.362 0 0 0-.114.438l.092.2a.362.362 0 0 0 .395.208.367.367 0 0 0 .147-.06c.271-.187.55-.282.83-.282.543 0 .819.268.819.79-.007.71-.603 1.346-1.867 2.535Z"/><path fill="#4ABE04" d="M37.547 32.721a.321.321 0 0 0-.03 0h-.11a.366.366 0 0 0-.3.153l-2.236 3.162a.358.358 0 0 0-.066.207v.253a.358.358 0 0 0 .225.334.368.368 0 0 0 .14.027h2.042v1.033a.358.358 0 0 0 .225.333.37.37 0 0 0 .14.028h.349c.096 0 .19-.038.258-.106a.359.359 0 0 0 .107-.255v-1.033h.36c.096 0 .19-.038.258-.105a.359.359 0 0 0 .107-.256v-.234a.359.359 0 0 0-.107-.255.367.367 0 0 0-.258-.106h-.36v-2.82a.359.359 0 0 0-.107-.255.367.367 0 0 0-.258-.106h-.35c-.01 0-.019 0-.029.002Zm-.335 3.18h-1.103c.28-.401.76-1.091 1.103-1.6v1.6Z"/><path fill="#4ABE04" d="M35.26 43.723c-4.297 0-7.793-3.455-7.793-7.7 0-4.02 3.135-7.33 7.116-7.67v1.227a.233.233 0 0 0 .126.208.241.241 0 0 0 .246-.012l2.82-1.873a.238.238 0 0 0 .107-.196.234.234 0 0 0-.106-.196l-2.821-1.872a.24.24 0 0 0-.372.196v.952c-4.853.344-8.696 4.355-8.696 9.236 0 5.106 4.205 9.26 9.373 9.26a9.4 9.4 0 0 0 6.414-2.508l-1.081-1.138a7.815 7.815 0 0 1-5.333 2.086Zm8-12.526a9.322 9.322 0 0 0-1.121-1.464l-1.16 1.06c.352.375.665.783.934 1.218l1.348-.814Zm-.278 3.78 1.565-.21a9.137 9.137 0 0 0-.432-1.787l-1.492.513c.17.481.29.979.36 1.484Zm-2.346-6.54a9.402 9.402 0 0 0-1.622-.901l-.633 1.43c.474.204.925.455 1.348.748l.907-1.278Zm.645 12.475 1.219.992a9.282 9.282 0 0 0 1.034-1.527l-1.394-.735c-.243.45-.531.876-.86 1.27Zm1.75-4.294a7.615 7.615 0 0 1-.27 1.504l1.52.425c.168-.591.277-1.198.324-1.81l-1.575-.119Z"/></svg>