<svg xmlns="http://www.w3.org/2000/svg" width="14.75" height="14.513" viewBox="0 0 14.75 14.513"><defs fill="#7c7272"><style>.a{fill:#8e8e8e;}</style></defs><g transform="translate(-908.291 -365.195)"><path class="a" d="M917.9,379.708a2.217,2.217,0,0,0,1.345-.412c.552-.394,1.083-.821,1.6-1.262a.829.829,0,0,0-.016-1.134c-.573-.59-1.153-1.174-1.749-1.741a1.108,1.108,0,0,0-1.406-.045c-.324.227-.657.445-.958.7a.769.769,0,0,1-.931.089,3.351,3.351,0,0,1-.76-.5c-.875-.831-1.732-1.68-2.583-2.536a2.375,2.375,0,0,1-.369-.555.918.918,0,0,1,.09-1.1c.242-.3.46-.619.685-.933a1.086,1.086,0,0,0-.1-1.441q-.8-.814-1.619-1.613a.878.878,0,0,0-1.36.043c-.361.41-.7.839-1.026,1.28a2.251,2.251,0,0,0-.3,2.191,9.974,9.974,0,0,0,1.815,3.076,26.047,26.047,0,0,0,5.215,4.913A4.945,4.945,0,0,0,917.9,379.708Z" fill="#7c7272"/><path class="a" d="M916.079,368.8a4.119,4.119,0,0,1,3.356,3.355.429.429,0,0,0,.426.359.448.448,0,0,0,.073-.007.433.433,0,0,0,.356-.5,4.983,4.983,0,0,0-4.06-4.06.434.434,0,0,0-.5.352.428.428,0,0,0,.349.5Zm0,0" fill="#7c7272"/><path class="a" d="M923.034,371.887a8.2,8.2,0,0,0-6.686-6.686.432.432,0,0,0-.141.852,7.331,7.331,0,0,1,5.975,5.975.43.43,0,0,0,.426.359.62.62,0,0,0,.074-.007.424.424,0,0,0,.352-.493Zm0,0" fill="#7c7272"/></g></svg>